<svg id="Layer_1" data-name="Layer 1" xmlns="http://www.w3.org/2000/svg" viewBox="0 0 800 800"><defs><style>.cls-1{fill:#fff;}.cls-2{fill:#00b868;}.cls-3{fill:#009152;}.cls-4{fill:#006b3d;}</style></defs><title>Logo_icon</title><path class="cls-1" d="M400,670.51,165.77,535.21V264.79L400,129.49l234.23,135.3V535.4ZM267.3,476.56,400,553.21l132.7-76.65V323.44L400,246.79,267.3,323.44V476.56Z"/><path class="cls-1" d="M400,670.51,165.77,535.21V264.79L400,129.49l234.23,135.3V535.4ZM267.3,476.56,400,553.21l132.7-76.65V323.44L400,246.79,267.3,323.44V476.56Z"/><path class="cls-2" d="M400,670.51,165.77,535.21V264.79L400,129.49l234.23,135.3V535.4ZM267.3,476.56,400,553.21l132.7-76.65V323.44L400,246.79,267.3,323.44V476.56Z"/><polygon class="cls-3" points="400 129.49 634.23 264.79 532.7 323.44 400 246.79 267.3 323.44 165.77 264.79 400 129.49"/><polygon class="cls-4" points="634.23 264.79 532.7 323.44 532.7 476.56 400 553.21 400 670.51 634.23 535.21 634.23 264.79"/></svg>