<svg xmlns="http://www.w3.org/2000/svg" xmlns:xlink="http://www.w3.org/1999/xlink" width="200" height="200" viewBox="0 0 200 200"><defs><clipPath id="a"><rect width="200" height="200"/></clipPath><clipPath id="b"><rect width="100" height="100" transform="translate(50 50)" fill="#fff" stroke="#707070" stroke-width="1"/></clipPath></defs><g clip-path="url(#a)"><path d="M100,0A100,100,0,1,1,0,100,100,100,0,0,1,100,0Z" fill="rgba(125,131,244,0)"/><g clip-path="url(#b)"><g transform="translate(50 50)"><rect width="100" height="100" fill="none"/><path d="M79.167,20.833V79.167H20.833V20.833H79.167m0-8.333H20.833A8.358,8.358,0,0,0,12.5,20.833V79.167A8.358,8.358,0,0,0,20.833,87.5H79.167A8.358,8.358,0,0,0,87.5,79.167V20.833A8.358,8.358,0,0,0,79.167,12.5Z" fill="#fff"/><path d="M58.333,70.833H29.167V62.5H58.333Zm12.5-16.667H29.167V45.833H70.833Zm0-16.667H29.167V29.167H70.833Z" fill="#fff"/></g></g></g></svg>