<svg xmlns="http://www.w3.org/2000/svg" xmlns:xlink="http://www.w3.org/1999/xlink" width="200" height="200" viewBox="0 0 200 200"><defs><clipPath id="a"><rect width="200" height="200"/></clipPath><clipPath id="b"><rect width="100" height="100" transform="translate(50 50)" fill="#fff" stroke="#707070" stroke-width="1"/></clipPath></defs><g clip-path="url(#a)"><rect width="200" height="200" rx="100" fill="rgba(125,131,244,0)"/><g clip-path="url(#b)"><g transform="translate(50 50)"><path d="M0,0H100V100H0Z" fill="none"/><path d="M62.5,16.667V45.833H21.542l-2.458,2.458-2.417,2.417V16.667H62.5m4.167-8.333H12.5A4.179,4.179,0,0,0,8.333,12.5V70.833L25,54.167H66.667A4.179,4.179,0,0,0,70.833,50V12.5a4.179,4.179,0,0,0-4.166-4.167ZM87.5,25H79.167V62.5H25v8.333A4.179,4.179,0,0,0,29.167,75H75L91.667,91.667v-62.5A4.179,4.179,0,0,0,87.5,25Z" fill="#fff"/></g></g></g></svg>