<svg xmlns="http://www.w3.org/2000/svg" xmlns:xlink="http://www.w3.org/1999/xlink" width="200" height="200" viewBox="0 0 200 200"><defs><clipPath id="a"><rect width="200" height="200"/></clipPath><clipPath id="b"><rect width="100" height="100" transform="translate(50 50)" fill="#fff" stroke="#707070" stroke-width="1"/></clipPath></defs><g clip-path="url(#a)"><path d="M100,0A100,100,0,1,1,0,100,100,100,0,0,1,100,0Z" fill="rgba(125,131,244,0)"/><g clip-path="url(#b)"><g transform="translate(50 50)"><path d="M0,0H100V100H0Z" fill="none"/><path d="M91.667,25a8.358,8.358,0,0,0-8.333-8.333H16.667A8.358,8.358,0,0,0,8.333,25V75a8.358,8.358,0,0,0,8.333,8.333H83.333A8.358,8.358,0,0,0,91.667,75Zm-8.333,0L50,45.792,16.667,25Zm0,50H16.667V33.333L50,54.167,83.333,33.333Z" fill="#fff"/></g></g></g></svg>