<svg id="Group_89" data-name="Group 89" xmlns="http://www.w3.org/2000/svg" viewBox="0 0 18.336 19.025">
  <defs>
    <style>
      .cls-1 {
        fill: #8cb8a4;
      }
    </style>
  </defs>
  <g id="Group_90" data-name="Group 90">
    <g id="Group_89-2" data-name="Group 89">
      <path id="Path_358" data-name="Path 358" class="cls-1" d="M13,8.342a2.112,2.112,0,0,0-.253.01V2.894C12.752.991,9.547,0,6.381,0S0,.991,0,2.894v9.848H.01c.117,1.836,3.253,2.8,6.361,2.8a14.151,14.151,0,0,0,1.583-.087A5.341,5.341,0,1,0,13,8.342ZM6.371,1.476c3.176,0,4.895,1.01,4.895,1.418S9.556,4.312,6.371,4.312,1.476,3.3,1.476,2.894,3.2,1.476,6.371,1.476ZM1.476,4.817a11.245,11.245,0,0,0,4.895.971,11.245,11.245,0,0,0,4.895-.971V6.206c0,.408-1.719,1.418-4.895,1.418s-4.895-1-4.895-1.418C1.476,6.2,1.476,4.817,1.476,4.817Zm6.2,9.178c-.4.039-.826.058-1.292.058-3.176,0-4.895-1.01-4.895-1.418V11.266a11.241,11.241,0,0,0,4.895.981c.505,0,1.01-.029,1.505-.078a5.264,5.264,0,0,0-.223,1.525C7.663,13.791,7.663,13.888,7.672,13.995Zm-1.3-3.234c-3.176,0-4.895-1-4.895-1.418V8.119a11.245,11.245,0,0,0,4.895.971,11.245,11.245,0,0,0,4.895-.971v.515a5.4,5.4,0,0,0-2.6,1.933A12.86,12.86,0,0,1,6.371,10.761ZM13,17.549a3.865,3.865,0,1,1,3.865-3.865A3.875,3.875,0,0,1,13,17.549Z"/>
      <path id="Path_359" data-name="Path 359" class="cls-1" d="M111.773,111.738c-.622-.078-.942-.165-.942-.447,0-.437.631-.476.893-.476a1.262,1.262,0,0,1,.981.427l.058.1.9-.418-.058-.117a1.734,1.734,0,0,0-1.321-.932V109.3h-1.059v.573c-.932.146-1.486.67-1.486,1.428,0,1.233,1.156,1.369,1.923,1.447.7.087,1.02.253,1.02.524,0,.534-.758.573-.991.573a1.265,1.265,0,0,1-1.165-.6l-.049-.117-.981.418.049.117a1.978,1.978,0,0,0,1.68,1.156v.622h1.059v-.651a1.573,1.573,0,0,0,1.525-1.525C113.822,111.99,112.588,111.835,111.773,111.738Z" transform="translate(-98.866 -98.685)"/>
    </g>
  </g>
</svg>
