<svg xmlns="http://www.w3.org/2000/svg" xmlns:xlink="http://www.w3.org/1999/xlink" width="200" height="200" viewBox="0 0 200 200"><defs><clipPath id="a"><rect width="200" height="200"/></clipPath><clipPath id="b"><rect width="100" height="100" transform="translate(50 49)" fill="#fff" stroke="#707070" stroke-width="1"/></clipPath><clipPath id="c"><rect width="100" height="100" fill="#fff"/></clipPath></defs><g clip-path="url(#a)"><path d="M100,0A100,100,0,1,1,0,100,100,100,0,0,1,100,0Z" fill="rgba(125,131,244,0)"/><g clip-path="url(#b)"><g transform="translate(51 48)" clip-path="url(#c)"><g transform="translate(43.94 4.127)"><path d="M4.572,0H48.988A4.572,4.572,0,0,1,53.56,4.572V36.9a4.572,4.572,0,0,1-4.572,4.572H4.572A4.572,4.572,0,0,1,0,36.9V4.572A4.572,4.572,0,0,1,4.572,0Z" fill="none"/><path d="M4.572,4.572c-.9,0,2.521-1.824,2.521-.922V36.9c0,.9-.9-1.77,0-1.77H48.988c.9,0-2.8.708-2.8-.194L46.36,5.062c0-.9,1.6,1.2.695,1.2H7.094M4.572,0H48.988A4.572,4.572,0,0,1,53.56,4.572V36.9a4.572,4.572,0,0,1-4.572,4.572H4.572A4.572,4.572,0,0,1,0,36.9V4.572A4.572,4.572,0,0,1,4.572,0Z" transform="translate(1 -2)" fill="#fff"/></g><path d="M213.012-1348.86a4.29,4.29,0,0,1-1.975-5.736l6.929-14.207a4.31,4.31,0,0,1,.561-.868l4.859-9.963a4.288,4.288,0,0,1,3.369-2.383,4.942,4.942,0,0,1,2.439-.641H247.71a4.943,4.943,0,0,1,3.014,1.018l12.3,4.968,9.783-8.5a4.29,4.29,0,0,1,6.052.424,4.29,4.29,0,0,1-.424,6.052l-11.922,10.366a4.291,4.291,0,0,1-5.528.09l-8.3-3.354v16.484a4.968,4.968,0,0,1-4.968,4.968H229.2a4.968,4.968,0,0,1-4.968-4.968v-6.684l-.06.122a4.3,4.3,0,0,1-.56.871l-4.86,9.964a4.29,4.29,0,0,1-3.86,2.411,4.273,4.273,0,0,1-1.876-.435Zm13.926-47.349a11.291,11.291,0,0,1,11.291-11.291,11.291,11.291,0,0,1,11.291,11.291,11.291,11.291,0,0,1-11.291,11.291,11.291,11.291,0,0,1-11.291-11.292Z" transform="translate(-209.19 1445.104)" fill="#fff"/></g></g></g></svg>