<svg xmlns="http://www.w3.org/2000/svg" width="16.5" height="16.503" viewBox="0 0 16.5 16.503">
  <g id="Group_1127" data-name="Group 1127" transform="translate(-23.75 -519.748)">
    <g id="code-signs" transform="translate(24 479.25)">
      <g id="_x34__24_" transform="translate(0 40.75)">
        <g id="Group_1126" data-name="Group 1126" transform="translate(0 0)">
          <path id="Path_375" data-name="Path 375" d="M4.107,51.5,1.34,48.921,4.107,46.34a.66.66,0,0,0,0-.856.5.5,0,0,0-.76,0L.153,48.463a.767.767,0,0,0,0,.917l3.194,2.979a.5.5,0,0,0,.76,0A.66.66,0,0,0,4.107,51.5Zm7.6-10.672a.5.5,0,0,0-.728.221L4.317,55.868c-.147.288-.086.73.2.824.344.115.581.068.728-.221l6.665-14.817A.646.646,0,0,0,11.711,40.831Zm4.136,7.632-3.194-2.98a.5.5,0,0,0-.76,0,.66.66,0,0,0,0,.856l2.768,2.582L11.892,51.5a.66.66,0,0,0,0,.856.5.5,0,0,0,.76,0l3.194-2.979a.765.765,0,0,0,0-.916Z" transform="translate(0 -40.75)" fill="#8cb8a4" stroke="#c2c1d1" stroke-width="0.5"/>
        </g>
      </g>
    </g>
  </g>
</svg>
