<svg xmlns="http://www.w3.org/2000/svg" width="372" height="469.383" viewBox="0 0 372 469.383">
  <g id="hot-wallet-btc" transform="translate(-58.482 -71.617)">
    <rect id="Rectangle_1580" data-name="Rectangle 1580" width="326" height="316" rx="34" transform="translate(104.482 71.617)" fill="#a6a4ff" opacity="0.186"/>
    <g id="wallet" transform="translate(13.482 -344)">
      <rect id="Rectangle_978" data-name="Rectangle 978" width="311.518" height="241" rx="20" transform="translate(45 644)" fill="#6a70e5"/>
      <g id="Group_971" data-name="Group 971" transform="translate(254.518 738)">
        <path id="Rectangle_979" data-name="Rectangle 979" d="M27,0h83a0,0,0,0,1,0,0V54a0,0,0,0,1,0,0H27A27,27,0,0,1,0,27v0A27,27,0,0,1,27,0Z" fill="#8b91ff"/>
      </g>
      <circle id="Ellipse_36" data-name="Ellipse 36" cx="16" cy="16" r="16" transform="translate(270.839 749)" fill="#fff"/>
    </g>
    <g id="lia5" transform="translate(-905.5 -802.394)">
      <path id="hair-back" d="M268.59,392.53c-6.346,1.894-11.881,6.891-14.455,17.2s-1.866,17.808-3.229,20.678c-2.945,6.2-8.559,9.576-5.43,9.889s38.305,9.96,45.171,4.993,6.3-12.732,7.367-23.467.413-17.614-7.54-25.025S274.936,390.636,268.59,392.53Z" transform="translate(755.717 620.19) rotate(-13)" fill="#140662"/>
      <path id="torso" d="M102.419,143.673a77.145,77.145,0,0,1-7.435,3.04c-3.092,1.084-7.115,1.9-9.959,4.376-4.817,4.192,3.877,19.938,5.955,32.324s2.356,17.22,2.356,17.22l-7.021,23.5a235.052,235.052,0,0,0,29.477,1.589c13.336-.379,21.567-3.889,21.567-3.889l-9.392-21.2s.886-13.655,2.376-20.445,11.877-22.679,6.149-28.307c-2.641-2.594-6.956-3.62-11.161-4.872a55.978,55.978,0,0,1-8.3-3.337Z" transform="translate(1008.058 848.74)" fill="#b47a52"/>
      <g id="neck" transform="translate(1110.336 971.74)">
        <rect id="Rectangle_2" data-name="Rectangle 2" width="15" height="24" transform="translate(0)" fill="#b47a52"/>
        <path id="Intersection_2" data-name="Intersection 2" d="M2.428,8.645A22.972,22.972,0,0,1,0,5.706V0H15V12.055a3.254,3.254,0,0,1-2.227,1.582,4.581,4.581,0,0,1-.535.03C9.238,13.668,4.75,11.066,2.428,8.645Z" transform="translate(0 5)" fill="#673115" opacity="0.2"/>
      </g>
      <g id="face" transform="translate(994.858 864.386) rotate(-8)">
        <path id="Path_4" data-name="Path 4" d="M306.7,416.259c-3.632-11.25,2-20.467,5.56-22.436s11.449-5.136,17.634-1.57,10.762,7.828,9.365,18.425a40.548,40.548,0,0,1-6.723,17.077c-2.4,3.415-5.364,5.832-8.074,5.69C318.4,433.127,310.331,427.508,306.7,416.259Z" transform="matrix(0.999, -0.035, 0.035, 0.999, -228.099, -282.525)" fill="#b47a52"/>
        <path id="face-shadow" d="M21.752,8.905a11.807,11.807,0,0,1,2.046.868c6.3,3.4,10.279,5.459,10.782,13.962a35.9,35.9,0,0,1-7.476,23.4,10.971,10.971,0,0,1-5.351,4.073Z" transform="translate(90.748 88)" fill="#673115" opacity="0.3"/>
        <path id="Path_6" data-name="Path 6" d="M328.384,410.146l2.66,8.814-4.23,1.136Z" transform="matrix(0.999, -0.035, 0.035, 0.999, -230.229, -280.612)" fill="#b47a52"/>
        <path id="Path_7" data-name="Path 7" d="M323,410.467l-.323-.372c-.222-.269-2.153-2.108-3.828-2.108a26.251,26.251,0,0,0-4.686.608" transform="matrix(0.996, -0.087, 0.087, 0.996, -249.989, -261.414)" fill="none" stroke="#360e0e" stroke-width="0.8"/>
        <path id="Path_8" data-name="Path 8" d="M314.34,410.467s1.5-2.191,3.273-2.191a19.139,19.139,0,0,1,4.417.82" transform="matrix(0.995, 0.105, -0.105, 0.995, -155.102, -321.259)" fill="none" stroke="#360e0e" stroke-width="0.8"/>
        <path id="Path_9" data-name="Path 9" d="M1.154,0c.637,0,1.731.606,1.731,1.435A1.33,1.33,0,0,1,1.658,2.9,1.621,1.621,0,0,1,0,1.5,1.361,1.361,0,0,1,1.154,0Z" transform="translate(102.407 117.89) rotate(-24)" fill="#360e0e"/>
        <path id="Path_1638" data-name="Path 1638" d="M1.158,0C1.8,0,2.894.606,2.894,1.435A1.332,1.332,0,0,1,1.664,2.9,1.624,1.624,0,0,1,0,1.5,1.363,1.363,0,0,1,1.158,0Z" transform="translate(116.741 118.052) rotate(-13)" fill="#360e0e"/>
        <path id="Path_13" data-name="Path 13" d="M327.928,425.33c-.808-.015-6.192-.216-6.192-.216s3.058,4.19,6.042,4.521,5.5-4.118,5.5-4.118S328.411,425.351,327.928,425.33Z" transform="matrix(0.999, -0.035, 0.035, 0.999, -231.234, -284.123)" fill="#91163b"/>
        <path id="Path_1592" data-name="Path 1592" d="M0,9.7a5.446,5.446,0,0,0,2.442.813c.907-.107,2.039-1.652,1.512-4.28S.335,0,.335,0Z" transform="translate(95.703 126.859) rotate(170)" fill="#b47a52"/>
        <path id="Path_4022" data-name="Path 4022" d="M9.41,0l.536,1.736s-2.97.681-5.535,1.317A18.871,18.871,0,0,0-.893,5.64,8.775,8.775,0,0,1,3,2.091C5.513,1.064,9.41,0,9.41,0Z" transform="matrix(0.899, 0.438, -0.438, 0.899, 100.926, 109.08)" fill="#140662"/>
        <path id="Path_4023" data-name="Path 4023" d="M8.284,5.081l.472-1.659S6.142,2.771,3.884,2.164A10.045,10.045,0,0,1,0,0,4.658,4.658,0,0,0,2.637,3.083,58.552,58.552,0,0,0,8.284,5.081Z" transform="matrix(-0.899, 0.438, -0.438, -0.899, 123.692, 114.168)" fill="#140662"/>
      </g>
      <path id="top" d="M102.419,143.673a76.762,76.762,0,0,1-7.435,3.067c-3.092,1.094-7.115,1.919-9.959,4.416-4.817,4.229,3.877,20.119,5.955,32.617s2.283,17.376,2.283,17.376l-8.238,23.123,1.5.506s16.452,5.094,27.588,4.774c13.336-.382,23.181-9.522,23.181-9.522l-8.993-19.6s.555-13.056,2.044-19.907,14.026-30.535,14.026-30.535-14.617-1.8-18.823-3.062a74.468,74.468,0,0,1-8.517-3.25s.543,7.385-6.358,7.483S102.419,143.673,102.419,143.673Z" transform="translate(1008.058 848.74)" fill="#a6a4ff"/>
      <g id="hair-front" transform="translate(1096.347 943.054) rotate(-8)">
        <path id="Path_14" data-name="Path 14" d="M315.844,393.156c5.134,7.473,9.561,5.474,16.221,11.913s5.217,20.349,5.217,20.349,7.475-17.743,4.424-25.072-6.117-11.483-13.194-13.7S310.71,385.683,315.844,393.156Z" transform="translate(-304.182 -386.027)" fill="#140662"/>
        <path id="Path_15" data-name="Path 15" d="M316.963,396.324a35.053,35.053,0,0,0-8.506,13.628c-2.463,7.983,0,9.192,0,9.192s-7-8.3-4.535-17.536a17.718,17.718,0,0,1,9.863-11.988Z" transform="translate(-302.979 -386.738)" fill="#140662"/>
      </g>
      <g id="arm1" transform="translate(1124.612 1106.504) rotate(177)">
        <path id="Path_1641" data-name="Path 1641" d="M0,9.67,10.339,47.7s5.633,10.768,10.069,13.362c5.647,3.3,12.219,2.05,11.493-5.124C30.661,43.677,15.789,15.56,7.814,3.993S0,9.67,0,9.67Z" transform="matrix(0.799, 0.602, -0.602, 0.799, 37.793, 40.095)" fill="#b47a52" opacity="0.998"/>
        <path id="Path_1642" data-name="Path 1642" d="M.19,32c-1.34-8.036,4.062-10.633,20.752-18.266S39.8,7.032,39.8,7.032L44.262,11.7A124.4,124.4,0,0,0,23.3,24.653C13.1,32.58,1.53,40.034.19,32Z" transform="translate(18.488 27.023) rotate(-30)" fill="#b47a52"/>
        <path id="Path_1643" data-name="Path 1643" d="M0,7.173,10.509,0s-.137,4.927,1.014,5.579c.546.309,14.775,2.963,13.643,8.258a60.272,60.272,0,0,0-9.958-1.291,103.951,103.951,0,0,0-12.122.462Z" transform="translate(49.218 10.665) rotate(-41)" fill="#b47a52"/>
      </g>
      <path id="sleeve1" d="M875.453,860.91C863.462,852.9,858.1,875.659,858.1,875.659l16.561,19.189S887.444,868.919,875.453,860.91Z" transform="translate(226.343 139.74)" fill="#a6a4ff"/>
      <path id="Path_4077" data-name="Path 4077" d="M1141.718,953.61s-26.74,51.2-1.75,58.377c18.718,5.373,63.467-2.963,63.467-2.963s7.962-9.63,7.744-13.86c-.868-16.855-2.142-18.618-12.1-21.449-4.589-1.305-21.061-20.1-21.061-20.1s-9.035,5.726-15.612,6.161A31.81,31.81,0,0,1,1141.718,953.61Z" transform="translate(-41 96.014)" fill="#3d21e3"/>
      <path id="Intersection_4" data-name="Intersection 4" d="M7.63,121.406c0-11.6,13.56-17.42,24.053-17.42q.313,0,.624.01c5.542,2.411,6.734,6.164,7.428,19.644.217,4.231-8.116,13.975-8.116,13.975s-5.349,1.145-13.073,2.367C12.44,135.389,7.63,128.313,7.63,121.406Z" transform="translate(1130.816 967.422)" fill="#9d633f"/>
      <path id="Path_4078" data-name="Path 4078" d="M13.655,0S4.98,23.787,2.385,45.482.867,72.819,4,85.558,11.46,97.641,16.578,97.2s5.9-9.43,5.9-9.43S23.8,70.462,23.8,48.767,22,0,22,0Z" transform="translate(1150.751 1169.546) rotate(-162)" fill="#9d633f"/>
      <path id="Path_4079" data-name="Path 4079" d="M12.727,96.373S4.051,72.587,1.457,50.891-.062,23.554,3.07,10.815,9.9-.117,14.374.373,21.554,8.6,21.554,8.6s1.32,17.311,1.32,39.006-1.807,48.767-1.807,48.767Z" transform="matrix(0.921, -0.391, 0.391, 0.921, 1118.211, 1079.511)" fill="#b47a52"/>
      <path id="shoe" d="M134.26,650.147l17.139-1.5s21.7-.607,20.353,4.749-12.6,7.787-12.6,7.787-8.807,2.973-14.57,1.45-8.57-1.1-8.57-1.1Z" transform="translate(1760.52 844.021) rotate(74)" fill="#140662"/>
      <path id="shoe-2" data-name="shoe" d="M134.26,650.147l17.139-1.5s21.7-.607,20.353,4.749-12.6,7.787-12.6,7.787-8.807,2.973-14.57,1.45-8.57-1.1-8.57-1.1Z" transform="matrix(-0.485, 0.875, -0.875, -0.485, 1775.923, 1356.132)" fill="#140662"/>
      <g id="bitcoin" transform="translate(474.307 -588.989)">
        <circle id="Ellipse_27" data-name="Ellipse 27" cx="35" cy="35" r="35" transform="translate(697 1471)" fill="#ffc92f"/>
        <path id="Path_61875" data-name="Path 61875" d="M27.5,0A27.5,27.5,0,1,1,0,27.5,27.5,27.5,0,0,1,27.5,0Z" transform="translate(705 1479)" fill="#ffeebe"/>
        <path id="Path_61878" data-name="Path 61878" d="M93.3,20.9a7.113,7.113,0,0,0-4.152-2.466q3.535-1.82,3.108-6.178a6.143,6.143,0,0,0-.866-2.74A5.456,5.456,0,0,0,89.429,7.65a10.72,10.72,0,0,0-2.681-1.078,20.977,20.977,0,0,0-3.322-.539V0H79.772V5.866q-.949,0-2.894.048V0H73.224V6.033q-.783.024-2.3.024l-5.03-.024V9.96h2.633a1.888,1.888,0,0,1,2.112,1.628V18.46a2.39,2.39,0,0,1,.38.024h-.38v9.624a1.271,1.271,0,0,1-1.376,1.221H66.629l-.736,4.382h4.745q.451,0,1.3.011t1.281.012v6.105h3.655V33.806q1,.025,2.894.024v6.009h3.654V33.734a28.158,28.158,0,0,0,3.452-.359,13.951,13.951,0,0,0,2.883-.826,7.767,7.767,0,0,0,2.3-1.4,6.607,6.607,0,0,0,1.531-2.131,9.124,9.124,0,0,0,.77-2.993A7.144,7.144,0,0,0,93.3,20.9ZM76.949,10.223q.166,0,.937-.012t1.281-.024a13.714,13.714,0,0,1,1.376.06A12.979,12.979,0,0,1,82,10.438a8.073,8.073,0,0,1,1.3.395,3.529,3.529,0,0,1,1.139.67,3.324,3.324,0,0,1,.723,1.006,3.163,3.163,0,0,1,.3,1.4,3.358,3.358,0,0,1-.213,1.221,2.3,2.3,0,0,1-.64.922,6.493,6.493,0,0,1-.878.647,4,4,0,0,1-1.151.443q-.7.168-1.221.263a9.914,9.914,0,0,1-1.3.132q-.783.036-1.186.048t-1.1,0q-.7-.012-.819-.012v-7.35h0Zm9.977,16.3a3.41,3.41,0,0,1-.581.958,3.3,3.3,0,0,1-.937.718,8,8,0,0,1-1.127.5,9,9,0,0,1-1.317.335q-.772.144-1.353.2t-1.388.1q-.806.035-1.257.036t-1.139-.012q-.688-.011-.878-.011V21.26q.19,0,1.127-.024t1.53-.024q.593,0,1.638.072A13.869,13.869,0,0,1,83,21.5a11.462,11.462,0,0,1,1.554.443,4.494,4.494,0,0,1,1.364.73,3.587,3.587,0,0,1,.878,1.1,3.449,3.449,0,0,1,.131,2.754Z" transform="translate(652.343 1486.58)" fill="#ffc92f"/>
      </g>
      <g id="arm2" transform="matrix(0.809, -0.588, 0.588, 0.809, 1116.39, 999.402)">
        <path id="Path_25" data-name="Path 25" d="M-.974,47.584c.449-9.016,12.141-34.568,12.141-34.568S16.8,3.734,21.236,1.5c5.647-2.849,11.493,4.417,11.493,4.417S19.79,31.168,13.661,40.738-1.423,56.6-.974,47.584Z" transform="translate(6.491 41.469) rotate(-92)" fill="#b47a52" opacity="0.998"/>
        <path id="Path_26" data-name="Path 26" d="M.019,21.915C-.243,18.71,4.516,16.8,10.545,13.4a142.6,142.6,0,0,1,17-8.353A137.658,137.658,0,0,1,41.394-.168l1.978,5.153s-5.224,4.75-19.85,13.849S.608,29.12.019,21.915Z" transform="translate(48.798 14.413) rotate(-3)" fill="#b47a52"/>
        <path id="Path_4055" data-name="Path 4055" d="M41.924,180.409a6.064,6.064,0,0,1,2.958,3.1c.766,2.122.107,5.389.107,5.389s1.562,11.793,2.779,11.5.488-4.945,1.27-8.382,1.295-3.337,1.295-3.337.706,3.546,1.24,3.232,1.719-7.447,1.719-7.447a8.12,8.12,0,0,0-1.863-4.611c-1.907-2.521-6.026-4.544-6.026-4.544Z" transform="matrix(0.391, -0.921, 0.921, 0.391, -91.572, -13.439)" fill="#b47a52"/>
      </g>
      <path id="Path_4082" data-name="Path 4082" d="M1173.31,895.766a49.957,49.957,0,0,0,12.084.91,105.545,105.545,0,0,0,13.2-1.76l-8.81,18.886h-18l-4.543-8.644Z" transform="translate(-42 100)" fill="#a6a4ff"/>
    </g>
  </g>
</svg>
