<svg xmlns="http://www.w3.org/2000/svg" viewBox="0 0 16.833 16.837">
  <defs>
    <style>
      .cls-1 {
        fill: #8cb8a4;
        stroke: #8cb8a4;
        stroke-width: 0.5px;
      }
    </style>
  </defs>
  <g id="Group_1129" data-name="Group 1129" transform="translate(-28.75 -423.747)">
    <path id="Path_383" data-name="Path 383" class="cls-1" d="M16.077,14.774c-1.534-1.505-3.049-3.04-4.584-4.555-.232-.232-.28-.376-.087-.676a5.887,5.887,0,0,0,.83-4.343A6.179,6.179,0,0,0,5.723.163C2.413.462.01,3.039,0,6.889a5.757,5.757,0,0,0,3.117,4.777,5.876,5.876,0,0,0,6.2-.068.565.565,0,0,1,.84.116q1.9,1.925,3.812,3.821c.338.338.676.907,1.042.936.415.029.695-.627,1.081-.926S16.367,15.063,16.077,14.774Zm-9.92-4.343a4.116,4.116,0,1,1,4.111-4.14A4.133,4.133,0,0,1,6.157,10.431Z" transform="translate(29 423.862)"/>
  </g>
</svg>
