<svg xmlns="http://www.w3.org/2000/svg" xmlns:xlink="http://www.w3.org/1999/xlink" width="682.07" height="606.531" viewBox="0 0 682.07 606.531">
  <defs>
    <linearGradient id="linear-gradient" x1="0.796" y1="1.061" x2="0.399" y2="0.117" gradientUnits="objectBoundingBox">
      <stop offset="0" stop-color="#ac6f4c"/>
      <stop offset="1" stop-color="#03194a"/>
    </linearGradient>
  </defs>
  <g id="setup-complete-btc" transform="translate(-1060.965 -977.045)">
    <g id="background2" transform="translate(-46.02 958.195)">
      <path id="Path_3997" data-name="Path 3997" d="M1044.692,1026.524c-138.4,0-228.687-138.463-171.185-265.531s262.8-242.74,401.2-242.74,242.4,251.88,184.9,378.948S1183.087,1026.524,1044.692,1026.524Z" transform="translate(298 -499.403)" fill="#ecedff"/>
      <path id="Path_3996" data-name="Path 3996" d="M2109.726,703.558c-204.069-95.167-92.49-241.493-123.381-295.163s-55.22-171.591,151.61-189.263c73.608-6.289,115.17-50.93,224.2,33.892,172.6,134.282,378.9,304.239,240.409,345.113S2313.795,798.725,2109.726,703.558Z" transform="translate(-858.952 -155.528)" fill="#e5f1ff" opacity="0.367"/>
    </g>
    <path id="particle1" d="M-1418,125a49.686,49.686,0,0,1-19.462-3.929,49.833,49.833,0,0,1-15.893-10.715,49.834,49.834,0,0,1-10.715-15.893A49.69,49.69,0,0,1-1468,75a49.688,49.688,0,0,1,3.929-19.462,49.834,49.834,0,0,1,10.715-15.893,49.834,49.834,0,0,1,15.893-10.715A49.686,49.686,0,0,1-1418,25a49.688,49.688,0,0,1,19.463,3.929,49.836,49.836,0,0,1,15.893,10.715,49.836,49.836,0,0,1,10.715,15.893A49.688,49.688,0,0,1-1368,75a49.69,49.69,0,0,1-3.929,19.463,49.837,49.837,0,0,1-10.715,15.893,49.835,49.835,0,0,1-15.893,10.715A49.688,49.688,0,0,1-1418,125Zm0-75a24.843,24.843,0,0,0-9.731,1.965,24.916,24.916,0,0,0-7.946,5.358,24.915,24.915,0,0,0-5.357,7.946A24.844,24.844,0,0,0-1443,75a24.846,24.846,0,0,0,1.965,9.731,24.915,24.915,0,0,0,5.357,7.947,24.915,24.915,0,0,0,7.946,5.358A24.843,24.843,0,0,0-1418,100a24.846,24.846,0,0,0,9.732-1.965,24.918,24.918,0,0,0,7.947-5.358,24.914,24.914,0,0,0,5.358-7.947A24.846,24.846,0,0,0-1393,75a24.843,24.843,0,0,0-1.965-9.731,24.913,24.913,0,0,0-5.358-7.946,24.917,24.917,0,0,0-7.947-5.358A24.846,24.846,0,0,0-1418,50Z" transform="translate(2950.779 1007.529)" fill="#fd4d7c"/>
    <g id="window" transform="translate(-145.705 -401.792)">
      <g id="Group_1541" data-name="Group 1541" transform="translate(286 -1662)">
        <path id="Path_61785" data-name="Path 61785" d="M8,0H529.411a8,8,0,0,1,8,8V342a8,8,0,0,1-8,8H8a8,8,0,0,1-8-8V8A8,8,0,0,1,8,0Z" transform="translate(993 3154.389)" fill="#fcfcff"/>
        <path id="Intersection_14" data-name="Intersection 14" d="M1645,232V219.389a8,8,0,0,1,8-8h521.411a8,8,0,0,1,7.589,5.461V232Z" transform="translate(-652 2943)" fill="#6a70e5"/>
        <circle id="Ellipse_30" data-name="Ellipse 30" cx="4.5" cy="4.5" r="4.5" transform="translate(1002 3160)" fill="#fd4d7c"/>
        <circle id="Ellipse_31" data-name="Ellipse 31" cx="4.5" cy="4.5" r="4.5" transform="translate(1019 3160)" fill="#ffc92f"/>
        <circle id="Ellipse_32" data-name="Ellipse 32" cx="4.5" cy="4.5" r="4.5" transform="translate(1036 3160)" fill="#2ef764"/>
      </g>
    </g>
    <g id="check" transform="translate(915.206 507.529)">
      <circle id="Ellipse_45" data-name="Ellipse 45" cx="30.5" cy="30.5" r="30.5" transform="translate(725 700)" fill="#fd4d7c"/>
      <path id="Path_61819" data-name="Path 61819" d="M2211.406,707.235l8.537,8.558,17.648-19.44" transform="translate(-1468.999 24.927)" fill="none" stroke="#fff" stroke-linecap="round" stroke-width="5"/>
    </g>
    <g id="bar" transform="translate(1446.091 1177.598)" style="isolation: isolate">
      <rect id="Rectangle_1140" data-name="Rectangle 1140" width="185.759" height="198.376" rx="20" transform="translate(1 -14)" fill="#e5e6ff"/>
      <path id="Polygon_28" data-name="Polygon 28" d="M56,16.236a11,11,0,0,1,18.991,0l46.324,79.21a11,11,0,0,1-9.5,16.553H19.176a11,11,0,0,1-9.5-16.553Z" transform="translate(55.909 20.231)" fill="#d0d3ff"/>
      <path id="Polygon_29" data-name="Polygon 29" d="M40.64,15.164a11,11,0,0,1,18.721,0L89.643,64.222A11,11,0,0,1,80.283,81H19.717a11,11,0,0,1-9.36-16.778Z" transform="translate(0.909 51.231)" fill="#fff" opacity="0.65"/>
    </g>
    <g id="ui-element6" transform="translate(1161.386 1146.214)">
      <rect id="Rectangle_1460" data-name="Rectangle 1460" width="265" height="61" rx="11" transform="translate(0 0.315)" fill="#ffe4eb"/>
      <rect id="Rectangle_1463" data-name="Rectangle 1463" width="41" height="41" rx="4" transform="translate(14 10.315)" fill="#f9b2c8"/>
      <rect id="Rectangle_1464" data-name="Rectangle 1464" width="90" height="5" rx="2.5" transform="translate(63.5 15.569)" fill="#fff"/>
      <rect id="Rectangle_1465" data-name="Rectangle 1465" width="153" height="5" rx="2.5" transform="translate(63.5 28)" fill="#fff" opacity="0.61"/>
      <rect id="Rectangle_1466" data-name="Rectangle 1466" width="153" height="5" rx="2.5" transform="translate(63.5 40.431)" fill="#fff" opacity="0.61"/>
    </g>
    <g id="ui-element6-2" data-name="ui-element6" transform="translate(1161.386 1235.214)">
      <rect id="Rectangle_1460-2" data-name="Rectangle 1460" width="265" height="61" rx="11" transform="translate(0 0.315)" fill="#ffe4eb"/>
      <rect id="Rectangle_1463-2" data-name="Rectangle 1463" width="41" height="41" rx="4" transform="translate(14 10.315)" fill="#f9b2c8"/>
      <rect id="Rectangle_1464-2" data-name="Rectangle 1464" width="90" height="5" rx="2.5" transform="translate(63.5 15.569)" fill="#fff"/>
      <rect id="Rectangle_1465-2" data-name="Rectangle 1465" width="153" height="5" rx="2.5" transform="translate(63.5 28)" fill="#fff" opacity="0.61"/>
      <rect id="Rectangle_1466-2" data-name="Rectangle 1466" width="153" height="5" rx="2.5" transform="translate(63.5 40.431)" fill="#fff" opacity="0.61"/>
    </g>
    <g id="ui-element6-3" data-name="ui-element6" transform="translate(1161.386 1324.214)">
      <rect id="Rectangle_1460-3" data-name="Rectangle 1460" width="265" height="61" rx="11" transform="translate(0 0.315)" fill="#ffe4eb"/>
      <rect id="Rectangle_1463-3" data-name="Rectangle 1463" width="41" height="41" rx="4" transform="translate(14 10.315)" fill="#f9b2c8"/>
      <rect id="Rectangle_1464-3" data-name="Rectangle 1464" width="90" height="5" rx="2.5" transform="translate(63.5 15.569)" fill="#fff"/>
      <rect id="Rectangle_1465-3" data-name="Rectangle 1465" width="153" height="5" rx="2.5" transform="translate(63.5 28)" fill="#fff" opacity="0.61"/>
      <rect id="Rectangle_1466-3" data-name="Rectangle 1466" width="153" height="5" rx="2.5" transform="translate(63.5 40.431)" fill="#fff" opacity="0.61"/>
    </g>
    <g id="jon2" transform="translate(1209.916 1207.529)">
      <g id="arm-front" transform="translate(0 75.304)">
        <path id="Path_986" data-name="Path 986" d="M496.663,192.913l11.9-47.159c-.327-11.716-9.316-13.293-9.316-13.293-10.782-1.033-11.506,7.992-11.506,7.992l-6.083,48.983s-1.067,19.341,5.06,19.493C486.719,208.93,495.863,198.432,496.663,192.913Z" transform="translate(-479.845 -132.379)" fill="#ac6f4c"/>
        <path id="Path_987" data-name="Path 987" d="M14.217,3.592S10.329,40.6,9.691,47.542L2.758,49.076S-1.864,12.925.859,2.489C.859,2.489,9.567-3.787,14.217,3.592Z" transform="matrix(1, 0.017, -0.017, 1, 1.035, 60.244)" fill="#ac6f4c"/>
        <path id="Path_4009" data-name="Path 4009" d="M1.873,2.238,0,10.292S2.135,26.033,3.8,25.638s.667-6.6,1.737-11.188S7.308,10,7.308,10,8.274,14.728,9,14.31s2-8.7,2-8.7L9,0Z" transform="matrix(0.999, 0.035, -0.035, 0.999, 0.895, 106.686)" fill="#ac6f4c"/>
      </g>
      <path id="sleeve-front" d="M209.1,1783.7s-14.927,5.851-18.156,12.483-4.407,18.756-4.407,18.756l19.6,12.821s6.4-16.539,5.278-26.413S209.1,1783.7,209.1,1783.7Z" transform="translate(-182.596 -1717.135)" fill="#a6a4ff"/>
      <g id="leg-back" transform="translate(46.904 157.268)">
        <path id="Path_4012" data-name="Path 4012" d="M319.5,1367.4l26.937,3.313s1.816,38.8,2.422,65.828,0,42.266,0,42.266-5.769,11.46-10.893,11.46-9.6-11.46-9.6-11.46l-8.862-54.565Z" transform="translate(-319.5 -1367.404)" fill="#03055a"/>
        <path id="Path_4013" data-name="Path 4013" d="M327.9,1480.065s6.51-5.537,11.787-5.537,9.32,5.537,9.32,5.537v77.52H337.358s-7.466-28.014-9.455-47.394S327.9,1480.065,327.9,1480.065Z" transform="translate(-319.5 -1369.404)" fill="#03055a"/>
      </g>
      <g id="leg-front" transform="translate(3.557 153.037)">
        <path id="Path_4010" data-name="Path 4010" d="M300.483,1368.95s26.145-18.164,28.415,9.921-19.333,102.417-19.333,102.417-3.862,5.315-9.082,1.831a35.211,35.211,0,0,1-7.548-6.416s-.486-52.584,1.792-77.642S300.483,1368.95,300.483,1368.95Z" transform="translate(-284.153 -1363.173)" fill="#03055a"/>
        <path id="Path_4011" data-name="Path 4011" d="M14.352.455C10.593.908,3.9,2.647,1.2,24.964s0,65.586,0,65.586l8.33,1.387s2.7-15.455,6.157-33.339c2.678-13.852,6.227-29.348,6.5-39.411C22.81-3.477,18.112,0,14.352.455Z" transform="translate(4.812 103.418) rotate(3)" fill="#03055a"/>
      </g>
      <g id="arm-back" transform="translate(48.447 42.779)">
        <path id="Path_986-2" data-name="Path 986" d="M11.447,52.729C5.986,38.943,0,11.67,0,11.67.327,1.443,9.316.067,9.316.067,20.1-.835,20.134,7.642,20.134,7.642L26.905,49.8s.63,16.744-5.5,16.877C21.408,66.677,16.908,66.515,11.447,52.729Z" transform="matrix(0.819, -0.574, 0.574, 0.819, 0, 31.174)" fill="#ac6f4c"/>
        <path id="Path_987-2" data-name="Path 987" d="M14.05,39.968C16.3,28.939,10.435,7.27,9.8.159L3.281,0S-1.936,33.583.787,44.278C.787,44.278,11.8,51,14.05,39.968Z" transform="matrix(0.951, 0.309, -0.309, 0.951, 57.345, 27.087)" fill="#ac6f4c"/>
        <path id="Path_4009-2" data-name="Path 4009" d="M1,29.842c-.336-4-1.111-15.56-.981-16.36C.809,8.587,1.647,3.383,2.282.455c1.64-2.485.789,5.776,5.76,10.984S10.6,17.685,9.681,21.507,7.9,30.634,7.9,30.634,1.331,33.846,1,29.842Z" transform="matrix(0.978, 0.208, -0.208, 0.978, 64.802, 0)" fill="#ac6f4c"/>
      </g>
      <path id="sleeve-back" d="M273.1,1804.005l-7.4,21.288s-8.558-4.474-10.35-8.973c-4.431-11.124-4.8-30.371.65-27.91C263.468,1791.781,273.1,1804.005,273.1,1804.005Z" transform="translate(-185.596 -1719.135)" fill="#a6a4ff"/>
      <g id="neck" transform="matrix(0.999, 0.035, -0.035, 0.999, 38.126, 44.938)">
        <path id="Path_988" data-name="Path 988" d="M0,0V18.206H19.252S14.518,10.989,16.886,0Z" transform="translate(0 0)" fill="#ac6f4c"/>
      </g>
      <path id="torso" d="M507.53,192.984c.04,1.872-4.8,25.213-3.61,25.464.008,0,37.629,7.489,54.959,0l-1.846-21.465,3.206-29.845,2.822-26.276s6.338-8.528-24.151-24.1H521.877L497.7,132.352c1.621,5.377,1.9,12.359,3.521,17.738,2.994,9.912,2.385,19.815,5.469,29.7C506.687,179.79,508.025,188.039,507.53,192.984Z" transform="translate(-484.988 -57.075)" fill="#ac6f4c"/>
      <path id="top" d="M507.53,192.984c.04,1.872-4.8,25.213-3.61,25.464.008,0,37.629,7.489,54.959,0l-1.846-21.465,3.206-29.845,2.822-26.276s8.061-8.319-22.428-23.894c0,0-1.269,2.209-9.417,1.718s-8.9-2.666-8.9-2.666l-26.142,16.562c1.621,5.377,3.431,12.129,5.048,17.508,2.994,9.912,2.385,19.815,5.469,29.7C506.687,179.79,508.025,188.039,507.53,192.984Z" transform="translate(-484.988 -57.075)" fill="#a6a4ff"/>
      <path id="shoe-back" d="M558.335,378.539s1.778,6.923,3.965,8.8,10.526,4.64,10.526,4.64l5.9,2.488s1.929.479-6.885,2.9-26.683-2.9-26.683-2.9l2.06-15.929Z" transform="translate(-481.845 -33.075)" fill="#130450"/>
      <path id="shoe-front" d="M511.241,397.58c-1.556-2.424-4.816-15.635-4.816-15.635l-7.2-.218-4.507,14.546s-.723,2.434.746,3.346c0,0,8.982,3.117,16.652-.149A5.267,5.267,0,0,0,511.241,397.58Z" transform="translate(-493.845 -36.075)" fill="#130450"/>
      <g id="head" transform="translate(24.178 0)">
        <path id="face" d="M4.154,6.68C10.507-1.645,21.386-.857,28.615,1.93c4.395,1.695,6.35,6.328,6.954,12.618.344,3.578-.227,8.853.149,11.478.592,4.131-.479,7.871-2.56,14.169-2.828,6.034-6.75,4.538-14,2.625s-10.344-2.461-15-10.278S-2.2,15.006,4.154,6.68Z" transform="translate(0.585 12.944) rotate(-7)" fill="#ac6f4c"/>
        <g id="hair" transform="translate(0)">
          <path id="Intersection_3" data-name="Intersection 3" d="M22.094,41.441c-7.43-1.015-10.567-1.182-16.143-8.373S-2.492,16.437,2.8,7.4A16.508,16.508,0,0,1,11.933,0a16.387,16.387,0,0,1,8.183,2.879c6.424,4.984,5.417,8.356,6.4,17.525.855,8-.147,15.861-4.347,21.047Z" transform="translate(2.723 11.669)" fill="url(#linear-gradient)"/>
          <path id="Path_1017" data-name="Path 1017" d="M29.425,19.6c-5.292,1.581-5.663,5.587-11.01,4.424S.943,18.278.077,13.29,5.706,3.706,15.067.869A20.785,20.785,0,0,1,24.774.3c3.527,2.65,3.568.063,6.767,1.715,2.574,1.135,1.885,3.973,3.312,4.614C38.058,8.067,42.191,8.9,39.7,14.5,34.613,20.636,34.717,18.024,29.425,19.6Z" transform="matrix(0.966, -0.259, 0.259, 0.966, 0, 10.472)" fill="#03194a"/>
        </g>
        <path id="ear" d="M1.216,10.078a5.446,5.446,0,0,0,2.442.813c.907-.107,2.039-1.652,1.512-4.28S0,0,0,0Z" transform="matrix(-0.999, -0.035, 0.035, -0.999, 30.583, 43.271)" fill="#ac6f4c"/>
      </g>
    </g>
    <g id="kim4" transform="translate(1495.84 1385.529)">
      <path id="hairback" d="M1.658,94.1C.185,70.762,9.581,55.452,4.161,41.33s-5.93-25.61.765-34S27.311-3.316,38.663,6.254s8.7,31.216,27.368,47.393,26.445,44.158,9.235,57.987-80.2,33.17-65.8,20.6S3.131,117.431,1.658,94.1Z" transform="matrix(0.966, 0.259, -0.259, 0.966, 89.077, 3.133)" fill="#5b2039"/>
      <path id="torso-2" data-name="torso" d="M119.346,143.673a77.145,77.145,0,0,0,7.435,3.04c3.092,1.084,7.115,1.9,9.959,4.376,4.817,4.192-3.877,19.938-5.955,32.325s-2.356,17.22-2.356,17.22l7.021,23.5a235.053,235.053,0,0,1-29.477,1.589c-13.336-.379-21.567-3.889-21.567-3.889l9.392-21.2s-.886-13.655-2.376-20.445-11.846-23.472-6.118-29.1c2.641-2.594,7.166-3.125,11.372-4.376a66.663,66.663,0,0,0,8.061-3.04Z" transform="translate(-6.385 -84.203)" fill="#eeb07b"/>
      <g id="neck-2" data-name="neck" transform="translate(98.101 38.797)">
        <rect id="Rectangle_2" data-name="Rectangle 2" width="15" height="24" transform="translate(0)" fill="#eeb07b"/>
        <path id="Intersection_2" data-name="Intersection 2" d="M11.821.037C8.848.357,5.25,2.627,2.786,5.2A20.482,20.482,0,0,0,0,8.813v6.17H15V1.4A2.6,2.6,0,0,0,12.468,0,6.043,6.043,0,0,0,11.821.037Z" transform="translate(15 19.983) rotate(180)" fill="#af5323" opacity="0.2"/>
      </g>
      <g id="face-2" data-name="face" transform="translate(118.118 59.841) rotate(-173)">
        <path id="Path_4" data-name="Path 4" d="M1.174,18.61c-3.632,11.25,2,20.467,5.56,22.436s11.449,5.136,17.634,1.57,10.762-7.828,9.365-18.425S24.926-.312,18.864.005,4.805,7.36,1.174,18.61Z" transform="matrix(0.999, 0.035, -0.035, 0.999, 2.568, 0)" fill="#eeb07b"/>
        <path id="face-shadow" d="M0,0C5.585,1.606,11.825,14.636,12.785,24.583c1.026,10.64-3.7,14.739-10,18.086A11.657,11.657,0,0,1,0,43.715Z" transform="translate(22.65 0.77)" fill="#c37146" opacity="0.3"/>
        <path id="Path_6" data-name="Path 6" d="M1.57,9.95,4.23,1.136,0,0Z" transform="matrix(0.999, 0.035, -0.035, 0.999, 21.198, 13.593)" fill="#eeb07b"/>
        <path id="Path_7" data-name="Path 7" d="M8.837,0,8.514.372C8.291.642,6.361,2.48,4.686,2.48A26.251,26.251,0,0,1,0,1.872" transform="matrix(0.996, 0.087, -0.087, 0.996, 8.899, 21.305)" fill="none" stroke="#360e0e" stroke-width="0.8"/>
        <path id="Path_8" data-name="Path 8" d="M0,0S1.5,2.191,3.273,2.191a19.14,19.14,0,0,0,4.417-.82" transform="matrix(0.995, -0.105, 0.105, 0.995, 24.761, 21.598)" fill="none" stroke="#360e0e" stroke-width="0.8"/>
        <path id="Path_9" data-name="Path 9" d="M1.154,2.9c.637,0,1.731-.606,1.731-1.435A1.33,1.33,0,0,0,1.658,0,1.621,1.621,0,0,0,0,1.4,1.361,1.361,0,0,0,1.154,2.9Z" transform="matrix(0.914, 0.407, -0.407, 0.914, 13.728, 20.756)" fill="#360e0e"/>
        <path id="Path_1638" data-name="Path 1638" d="M1.158,2.9c.639,0,1.737-.606,1.737-1.435A1.332,1.332,0,0,0,1.664,0,1.624,1.624,0,0,0,0,1.4,1.363,1.363,0,0,0,1.158,2.9Z" transform="translate(27.536 20.417) rotate(13)" fill="#360e0e"/>
        <path id="Path_11" data-name="Path 11" d="M11.4,1.746,11.465,0A15.42,15.42,0,0,1,5.871,2.02,15.256,15.256,0,0,1,0,1.057,7.764,7.764,0,0,0,4.754,3.051,21.2,21.2,0,0,0,11.4,1.746Z" transform="matrix(0.999, -0.035, 0.035, 0.999, 7.26, 25.617)" fill="#5b2039"/>
        <path id="Path_4019" data-name="Path 4019" d="M9.09,1.017,9.062,2.6A18.9,18.9,0,0,0,3.656,1.173,5.33,5.33,0,0,0,0,2.439,5.664,5.664,0,0,1,3.675.046,13.019,13.019,0,0,1,9.09,1.017Z" transform="matrix(-1, 0.017, -0.017, -1, 34.165, 27.572)" fill="#5b2039"/>
        <path id="Path_13" data-name="Path 13" d="M6.919,3.953c-.171-.011-.708-.021-1.192,0-.808.015-.719-.056-2.151,0S0,4.177,0,4.177,2.744.351,5.727.021s4.391,3.432,4.391,3.432A11.369,11.369,0,0,1,6.919,3.953Z" transform="matrix(1, 0.017, -0.017, 1, 16.229, 6.988)" fill="#be4851"/>
        <path id="Path_1592" data-name="Path 1592" d="M0,.822A5.446,5.446,0,0,1,2.442.009c.907.107,2.039,1.652,1.512,4.28S.335,10.52.335,10.52Z" transform="matrix(-0.985, -0.174, 0.174, -0.985, 4.027, 24.917)" fill="#eeb07b"/>
      </g>
      <path id="pelvis" d="M131.348,214.082s-13.745,2.756-25.314,2.241-18.958-3.953-18.958-3.953L79.8,228.19s10.542,23.235,24.948,24.79,32.7-18.1,32.7-18.1Z" transform="translate(-5.157 -84.203)" fill="#3654a2"/>
      <path id="top-2" data-name="top" d="M119.472,143.673a76.762,76.762,0,0,0,7.435,3.067c3.092,1.094,7.115,1.919,9.959,4.416,4.817,4.229-3.877,20.119-5.955,32.617s-2.356,17.376-2.356,17.376l8.311,23.123s-15.749,5.662-29.086,5.28S84.6,220.029,84.6,220.029l9.324-18.881s-.886-13.778-2.376-20.629S79.559,159.676,85.287,154c2.641-2.618,3.144-6.631,9.771-7.819a52.723,52.723,0,0,0,9.8-2.5s-.543,7.385,6.358,7.483S119.472,143.673,119.472,143.673Z" transform="translate(-6.511 -84.203)" fill="#3d21e3"/>
      <g id="hair-front" transform="translate(119.781 42.587) rotate(-173)">
        <path id="Path_1591" data-name="Path 1591" d="M17.639,6.183S13.463,8.5,14.695,20.872s.716,14.317.716,14.317A19.005,19.005,0,0,1,4.079,26.354C-.251,19-1.345,14.465,1.822,8S11.307-.7,15.068.187C15.791.357,17.639,6.183,17.639,6.183Z" transform="translate(20.334 37.355) rotate(-135)" fill="#5b2039"/>
        <path id="Path_4021" data-name="Path 4021" d="M12.513,19.429s-6.291-5.52-8.048-10.3A13.841,13.841,0,0,1,4.465,0S1.184,3.822.718,6.361s-1.944,5.4,1.486,11.968S10.2,25.57,10.2,25.57Z" transform="translate(0 1.669)" fill="#5b2039"/>
      </g>
      <g id="arm2" transform="matrix(-0.999, 0.035, -0.035, -0.999, 92.319, 90.594)">
        <path id="Path_134" data-name="Path 134" d="M28.2,7.537,19.764,2.1S13.734-1.652,9.805.873-1.434-.636.247,2.1C1.074,3.456,8.594,6.569,10.6,7c1.846.4-1.715,2.184.1,2.852a112.95,112.95,0,0,0,16.769,3.53Z" transform="translate(80.817 79.547) rotate(-139)" fill="#eeb07b"/>
        <path id="Path_1641" data-name="Path 1641" d="M0,7.06,10.083,43.4a10.314,10.314,0,0,1,8.562.914c10.6-2.523,11.844-5.427,11.844-5.427L8.6,0Z" transform="translate(53.79 24.782) rotate(124)" fill="#3d21e3" opacity="0.998"/>
        <path id="Path_1642" data-name="Path 1642" d="M.158,26.083C-.959,19.532,3.722,13.1,17.637,6.877S31.78,0,31.78,0l5.485,4.979s-10.21,9.7-18.713,16.162S1.276,32.634.158,26.083Z" transform="matrix(0.035, 0.999, -0.999, 0.035, 68.535, 19.035)" fill="#3d21e3"/>
      </g>
      <path id="shoe2" d="M15.215,27.3l-11,1L1.333,13.264S-2.356.089,2.54,0C4.9-.045,14.141,5.624,15.605,11.774S15.215,27.3,15.215,27.3Z" transform="translate(125.24 184.189) rotate(121)" fill="#03055a"/>
      <g id="arm2-2" data-name="arm2" transform="matrix(1, -0.017, 0.017, 1, 102.439, 63.616)">
        <path id="Path_1641-2" data-name="Path 1641" d="M0,53.129,10.339,15.1S15.972,4.331,20.408,1.736C26.055-1.568,32.627-.313,31.9,6.86,30.661,19.122,15.789,47.239,7.814,58.806S0,53.129,0,53.129Z" transform="matrix(0.799, -0.602, 0.602, 0.799, 0, 19.232)" fill="#3d21e3" opacity="0.998"/>
        <path id="Path_1642-2" data-name="Path 1642" d="M.158,3.066C-.959,9.617,3.722,16.051,17.637,22.273S31.78,29.15,31.78,29.15l5.485-4.979s-10.21-9.7-18.713-16.162S1.276-3.485.158,3.066Z" transform="translate(36.445 53.194) rotate(34)" fill="#3d21e3"/>
        <path id="Path_1643" data-name="Path 1643" d="M0,6.664l10.509,7.173s-.137-4.927,1.014-5.579C12.068,7.95,26.3,5.3,25.166,0a60.272,60.272,0,0,1-9.958,1.291A103.951,103.951,0,0,1,3.086.829Z" transform="translate(51.358 89.737) rotate(41)" fill="#eeb07b"/>
      </g>
      <g id="leg2" transform="translate(25.061 127.83)">
        <path id="Path_4043" data-name="Path 4043" d="M948.246,100.569c19.517,9.474,9.779,33.086-8.124,29.88s-59.826-31.4-57.795-38.865S928.728,91.1,948.246,100.569Z" transform="translate(-875.206 -83.033)" fill="#7d7aeb"/>
        <path id="Path_4044" data-name="Path 4044" d="M8.9,1.442S2.779,25.089.613,42.887s2.1,28.483,2.1,28.483,4.055,8.6,7.855,8.652,7.348-8.431,7.348-8.431a118,118,0,0,0,4.688-32.4C22.6,21.4,19.161,0,19.161,0Z" transform="translate(80.603 40.011) rotate(120)" fill="#7d7aeb"/>
      </g>
      <g id="leg1" transform="translate(52.277 134.19)">
        <path id="Path_4045" data-name="Path 4045" d="M899.657,96.771s14.118,23.811,0,33.286-44.017-4.026-44.017-4.026L869.2,100.894Z" transform="translate(-822.754 -89.393)" fill="#a6a4ff"/>
        <path id="Path_4046" data-name="Path 4046" d="M0,40.351S66.747-14.818,79.191,3.861C86.231,20.09,61.556,30.823,48.927,36.93S2.908,51.488,2.908,51.488Z" transform="matrix(0.998, 0.07, -0.07, 0.998, 3.592, 0)" fill="#a6a4ff"/>
      </g>
      <path id="shoe1" d="M170.111,648.645h-10.75s-21.7-.607-20.353,4.749,12.6,7.787,12.6,7.787l20.206-1.116Z" transform="translate(-116.063 -474.203)" fill="#03055a"/>
      <g id="laptop" transform="translate(31.404 90.708)">
        <g id="Group_4" data-name="Group 4" transform="translate(0 0)">
          <path id="Rectangle_12" data-name="Rectangle 12" d="M3,0H44a3,3,0,0,1,3,3V3a3,3,0,0,1-3,3H0A0,0,0,0,1,0,6V3A3,3,0,0,1,3,0Z" transform="translate(67.778 57.685) rotate(-166)" fill="#b5b1c3"/>
          <path id="Path_49" data-name="Path 49" d="M1062.195,773.7l-1.665-39.872a5.38,5.38,0,0,0-1.72-3.125,6.461,6.461,0,0,0-3.727-.684h-30.211a2.311,2.311,0,0,0-1.912,1.587,13.988,13.988,0,0,0-.326,4.462l2.238,36.143s-.32,2.594,4.03,2.907l32.208,5.169C1062.489,780.45,1062.195,773.7,1062.195,773.7Z" transform="translate(-1022.586 -729.988)" fill="#d6d5e6"/>
        </g>
        <path id="Path_4001" data-name="Path 4001" d="M3.651,0C5.667,0,7.3,2.686,7.3,6s-1.635,6-3.651,6S0,9.312,0,6,1.635,0,3.651,0Z" transform="matrix(0.996, -0.087, 0.087, 0.996, 9.754, 18.497)" fill="#fff"/>
      </g>
    </g>
    <g id="xlm-circle" transform="translate(506 630.829)">
      <rect id="Rectangle_1400" data-name="Rectangle 1400" width="50" height="50" rx="25" transform="translate(557 491)" fill="#ffc92f"/>
      <path id="Path_61783" data-name="Path 61783" d="M87.708,17.429A5.624,5.624,0,0,0,84.4,15.373q2.814-1.518,2.474-5.152a5.3,5.3,0,0,0-.69-2.285,4.439,4.439,0,0,0-1.559-1.557,8.315,8.315,0,0,0-2.134-.9,16,16,0,0,0-2.644-.449V0H76.942V4.892q-.755,0-2.3.04V0H71.729V5.031q-.623.02-1.832.02l-4-.02V8.306h2.1A1.519,1.519,0,0,1,69.67,9.664v5.73a1.818,1.818,0,0,1,.3.02h-.3V23.44a1.03,1.03,0,0,1-1.1,1.018h-2.1l-.586,3.654h3.777q.359,0,1.039.009t1.02.01v5.091h2.909V28.191q.793.02,2.3.02v5.011h2.908V28.132a21.434,21.434,0,0,0,2.748-.3,10.722,10.722,0,0,0,2.295-.689,6.14,6.14,0,0,0,1.832-1.168A5.509,5.509,0,0,0,87.944,24.2a7.9,7.9,0,0,0,.613-2.5A6.184,6.184,0,0,0,87.708,17.429Zm-13.013-8.9q.132,0,.746-.01t1.02-.02a10.425,10.425,0,0,1,1.1.05,9.888,9.888,0,0,1,1.161.16,6.21,6.21,0,0,1,1.039.329,2.518,2.518,0,0,1,1.482,1.4,2.744,2.744,0,0,1,.236,1.168,2.92,2.92,0,0,1-.17,1.019,1.923,1.923,0,0,1-.51.769,5.189,5.189,0,0,1-.7.539,3.1,3.1,0,0,1-.916.369q-.557.14-.972.22a7.546,7.546,0,0,1-1.039.11q-.623.03-.944.04t-.878,0l-.652-.01V8.525h0Zm7.942,13.6a2.871,2.871,0,0,1-.463.8,2.645,2.645,0,0,1-.746.6,6.228,6.228,0,0,1-.9.419,6.9,6.9,0,0,1-1.048.28q-.615.12-1.077.17t-1.1.08q-.642.029-1,.03t-.907-.01q-.548-.009-.7-.01V17.729q.151,0,.9-.02t1.218-.02q.472,0,1.3.06a10.564,10.564,0,0,1,1.4.179,8.806,8.806,0,0,1,1.237.37,3.529,3.529,0,0,1,1.086.609,2.972,2.972,0,0,1,.7.918,3,3,0,0,1,.1,2.3Z" transform="translate(504.752 499.389)" fill="#fff"/>
    </g>
  </g>
</svg>
