<svg xmlns="http://www.w3.org/2000/svg" viewBox="0 0 19.898 24.757">
  <defs>
    <style>
      .cls-1 {
        fill: #8cb8a4;
      }
    </style>
  </defs>
  <g id="Group_1127" data-name="Group 1127" transform="translate(-27 -220.102)">
    <g id="Group_91" data-name="Group 91" transform="translate(27 220.002)">
      <path id="Path_363" data-name="Path 363" class="cls-1" d="M45.61,57.271V55.138h3.511c.459,0,.726-.193.726-.533s-.252-.519-.726-.533a8.375,8.375,0,0,1-1.5-.089,2.6,2.6,0,0,1-2.03-2.5,2.667,2.667,0,0,1,1.911-2.608.254.254,0,0,0,.222-.3c-.015-.267,0-.533,0-.8,0-.015.015-.03.03-.074h2.089v1.052h2.119v2.133h-3.5c-.474,0-.726.193-.726.533s.252.519.726.533a8.375,8.375,0,0,1,1.5.089A2.615,2.615,0,0,1,52,54.575a2.667,2.667,0,0,1-1.911,2.578,1.947,1.947,0,0,0-.222.074v1.111H47.744V57.286C47.018,57.271,46.321,57.271,45.61,57.271Z" transform="translate(-38.839 -40.548)"/>
      <path id="Path_364" data-name="Path 364" class="cls-1" d="M45.7,5.034V2.9h9.038c-.444-.444-.889-.874-1.3-1.274C54,1.063,54.486.574,54.975.1c1.259,1.274,2.563,2.578,3.852,3.867l-3.9,3.9c-.459-.474-.948-.963-1.437-1.452.415-.415.859-.859,1.3-1.289-.015-.015-.015-.044-.03-.059C51.745,5.034,48.737,5.034,45.7,5.034Z" transform="translate(-38.929)"/>
      <path id="Path_365" data-name="Path 365" class="cls-1" d="M13.127,117.515v2.133H4.089c.459.444.889.874,1.319,1.289-.563.563-1.052,1.052-1.526,1.541L0,118.6l3.9-3.9,1.452,1.452c-.43.415-.859.859-1.3,1.289.015.015.015.044.03.059C7.082,117.515,10.09,117.515,13.127,117.515Z" transform="translate(0 -97.621)"/>
    </g>
  </g>
</svg>
