<svg xmlns="http://www.w3.org/2000/svg" xmlns:xlink="http://www.w3.org/1999/xlink" width="429.768" height="471.047" viewBox="0 0 429.768 471.047">
  <defs>
    <clipPath id="clip-path">
      <rect id="Rectangle_1584" data-name="Rectangle 1584" width="285" height="206" transform="translate(687 129)" fill="#6a70e5" stroke="#707070" stroke-width="1"/>
    </clipPath>
    <clipPath id="clip-path-2">
      <rect id="Rectangle_1585" data-name="Rectangle 1585" width="41" height="41" transform="translate(475.805 496)" fill="#ffc92f" stroke="#707070" stroke-width="1"/>
    </clipPath>
  </defs>
  <g id="warm-storage" transform="translate(-575.857 -46.953)">
    <g id="Group_10575" data-name="Group 10575">
      <g id="Group_10573" data-name="Group 10573" transform="translate(600 249.904)">
        <rect id="Rectangle_1579" data-name="Rectangle 1579" width="221.123" height="242.018" rx="25" fill="#0018ff" opacity="0.074"/>
      </g>
      <g id="Group_10574" data-name="Group 10574" transform="translate(690.442 46.953)">
        <rect id="Rectangle_1579-2" data-name="Rectangle 1579" width="281" height="290" rx="25" fill="#0018ff" opacity="0.15"/>
      </g>
    </g>
    <g id="Mask_Group_91" data-name="Mask Group 91" transform="translate(-37.626 27.032)" clip-path="url(#clip-path)">
      <g id="wallet" transform="translate(648.716 -418.396)">
        <rect id="Rectangle_978" data-name="Rectangle 978" width="278.194" height="205.03" rx="17.015" transform="translate(38.284 547.881)" fill="#6a70e5"/>
        <g id="Group_971" data-name="Group 971" transform="translate(844.48 -385.388)">
          <path id="Rectangle_979" data-name="Rectangle 979" d="M22.97,0H93.582V45.94H22.97A22.97,22.97,0,0,1,0,22.97H0A22.97,22.97,0,0,1,22.97,0Z" transform="translate(-614.778 1013.239)" fill="#8b91ff"/>
        </g>
        <circle id="Ellipse_36" data-name="Ellipse 36" cx="13.612" cy="13.612" r="13.612" transform="translate(240.761 637.209)" fill="#fff"/>
      </g>
    </g>
    <g id="sam3" transform="translate(22.189 -1127.188)">
      <g id="leg-back" transform="translate(425 14)">
        <path id="Path_4012" data-name="Path 4012" d="M319.5,1367.4l26.937,3.313s1.816,38.8,2.422,65.828,0,42.266,0,42.266-5.769,11.46-10.893,11.46-9.6-11.46-9.6-11.46l-8.863-54.565Z" transform="translate(-143 56)" fill="#03055a"/>
        <path id="Path_4013" data-name="Path 4013" d="M327.9,1480.065s6.51-5.537,11.787-5.537,9.32,5.537,9.32,5.537v77.52H337.358s-7.466-28.014-9.455-47.394S327.9,1480.065,327.9,1480.065Z" transform="translate(-143 54)" fill="#03055a"/>
      </g>
      <g id="leg-front" transform="translate(420 14)">
        <path id="Path_4010" data-name="Path 4010" d="M300.483,1368.95s26.145-18.164,28.415,9.921-19.333,102.417-19.333,102.417-3.862,5.315-9.082,1.831a35.211,35.211,0,0,1-7.548-6.416s-.486-52.584,1.792-77.642S300.483,1368.95,300.483,1368.95Z" transform="translate(-146 56)" fill="#03005a"/>
        <path id="Path_4011" data-name="Path 4011" d="M301.9,1467.565c-3.759.453-10.449,2.193-13.151,24.509s0,65.586,0,65.586l8.33,1.387s2.7-15.455,6.157-33.339c2.678-13.852,6.227-29.349,6.5-39.411C310.353,1463.634,305.655,1467.112,301.9,1467.565Z" transform="translate(-67.402 42.443) rotate(3)" fill="#03005a"/>
      </g>
      <g id="arm-back" transform="translate(613.59 1353.444) rotate(-3)">
        <path id="Path_986" data-name="Path 986" d="M493.035,192.793l-11.447-47.039c.327-11.716,9.316-13.293,9.316-13.293,10.782-1.033,12.529,7.978,12.529,7.978l5.06,49s1.067,19.34-5.06,19.493C503.433,208.93,493.835,198.312,493.035,192.793Z" transform="matrix(0.996, -0.087, 0.087, 0.996, -494.577, -88.581)" fill="#a6a4ff"/>
        <path id="Path_987" data-name="Path 987" d="M14.785,3.88s-3.886,34.166-4.524,41.1l-7.672.329S-1.73,11.158.993.722C.993.722,10.135-3.5,14.785,3.88Z" transform="matrix(-0.616, -0.788, 0.788, -0.616, 26.002, 77.394)" fill="#a6a4ff"/>
        <path id="Path_4037" data-name="Path 4037" d="M2.707,25.187C2.322,21.15,1.433,9.5,1.582,8.692c.911-4.935.031-5.842.759-8.794,1.881-2.506.219,3.844,5.92,9.1s5.457,3.936,4.407,7.789-2.047,9.2-2.047,9.2S3.092,29.224,2.707,25.187Z" transform="matrix(0.545, 0.839, -0.839, 0.545, 75.385, 24.932)" fill="#fad2b0"/>
      </g>
      <g id="neck" transform="matrix(0.999, 0.035, -0.035, 0.999, 471.716, -6.365)">
        <path id="Path_988" data-name="Path 988" d="M520.647,104.344v18.205H539.9s-4.734-7.217-2.365-18.206Z" transform="translate(-353.249 1222.061)" fill="#fad2b0"/>
        <path id="neck-shadow" d="M529.521,113.315c3.16,1.147,5.285,1.761,7.389.97.5-.178-1-5.657.623-9.94H520.647l-.059,3C522.693,110.378,526.36,112.168,529.521,113.315Z" transform="translate(-353.249 1222.061)" fill="#c37146" opacity="0.3"/>
      </g>
      <path id="hair-back" d="M561.878,97.867c-4.148,1.516-8.421-2.018-10.429,0-15.494-7.492-23.872-34.89-1.8-41.636C582.8,46.095,583.16,90.1,561.878,97.867Z" transform="translate(42.699 1229.061)" fill="#331f04"/>
      <g id="face" transform="matrix(-0.996, 0.087, -0.087, -0.996, 620.222, 1331.947)">
        <path id="Path_4" data-name="Path 4" d="M34.52,19.372c4.145,10.5-2.1,21.24-5.849,23.284s-12.045,5.33-18.552,1.629S-1.2,36.161.266,25.164,8.319-.49,15.84.3,30.375,8.867,34.52,19.372Z" transform="translate(0 0)" fill="#fad2b0"/>
        <path id="face-shadow" d="M0,44.684c2.358-1.141,4.775-3.608,6.747-7.047a51.821,51.821,0,0,0,5.774-17.4C13.991,9.243,9.176,4.822,2.669,1.122A12.328,12.328,0,0,0,0,0Z" transform="translate(12.787 45.383) rotate(180)" fill="#c37146" opacity="0.3"/>
        <path id="Path_6" data-name="Path 6" d="M2.974,9.605,0,.861,5.164,0Z" transform="translate(10.358 12.259) rotate(3)" fill="#fad2b0"/>
        <path id="Path_7" data-name="Path 7" d="M0,0,.323.372a5.168,5.168,0,0,0,3.36,1.819,23.942,23.942,0,0,0,4.972-.82" transform="translate(18.18 20.149)" fill="none" stroke="#360e0e" stroke-width="0.8"/>
        <path id="Path_8" data-name="Path 8" d="M7.69,0s-1.5,2.191-3.273,2.191A19.139,19.139,0,0,1,0,1.371" transform="translate(3.067 20.149)" fill="none" stroke="#360e0e" stroke-width="0.8"/>
        <path id="Path_9" data-name="Path 9" d="M1.5,0A1.725,1.725,0,0,1,3.063,1.687,1.407,1.407,0,0,1,1.5,3a1.5,1.5,0,0,1,0-3Z" transform="matrix(-0.966, 0.259, -0.259, -0.966, 23.421, 22.073)" fill="#360e0e"/>
        <path id="Path_4038" data-name="Path 4038" d="M1.334,0A1.655,1.655,0,0,1,2.723,1.687,1.307,1.307,0,0,1,1.334,3,1.424,1.424,0,0,1,0,1.5,1.424,1.424,0,0,1,1.334,0Z" transform="matrix(0.07, -0.998, 0.998, 0.07, 4.921, 22.132)" fill="#360e0e"/>
        <path id="Path_12" data-name="Path 12" d="M9.731,1.637,9.531.012s-2.7.357-5.05.62A10.065,10.065,0,0,1,0,0,4.856,4.856,0,0,0,3.675,1.995,43.039,43.039,0,0,0,9.731,1.637Z" transform="matrix(0.998, -0.07, 0.07, 0.998, 1.613, 25.282)" fill="#5f0412"/>
        <path id="Path_34" data-name="Path 34" d="M9.41,0l.536,1.736s-2.97.681-5.535,1.317A11.646,11.646,0,0,0,0,5.317,4.948,4.948,0,0,1,3,2.091C5.513,1.064,9.41,0,9.41,0Z" transform="matrix(-0.875, -0.485, 0.485, -0.875, 24.953, 30.895)" fill="#5f0412"/>
        <path id="Path_13" data-name="Path 13" d="M3.633,2.6a8.922,8.922,0,0,1,.945,0c.808.015,1.766,0,1.766,0l3.836.011S6.744.208,4.578.011,0,2.277,0,2.277A21.221,21.221,0,0,0,3.633,2.6Z" transform="translate(9.447 6.522)" fill="#e8a679"/>
      </g>
      <g id="hair-front" transform="translate(423 14)">
        <path id="Path_1001" data-name="Path 1001" d="M522.656,72.464s-7,8.386-8.351,13.882a40.832,40.832,0,0,0-1.167,10.161s-6.523-9.476-5.885-15.778.916-8.593,3.845-12.483C511.1,68.247,521.246,65.656,522.656,72.464Z" transform="translate(-350.739 1208.419)" fill="#5f0412"/>
        <path id="Path_1017" data-name="Path 1017" d="M536.92,84.06c-14.237,3.438-18.727-6.712-18.727-6.712l-6.817-4.654s2.035-6.139,12.547-8.975c0,0,8.944-1.415,16.462,2.855s10.342,13.745,9.027,17.485S551.157,80.622,536.92,84.06Z" transform="translate(-352.249 1205.726)" fill="#5f0412"/>
      </g>
      <path id="ear" d="M.352,10.068a5.446,5.446,0,0,0,2.442.813C3.7,10.774,4.833,9.229,4.306,6.6S-.865-.01-.865-.01Z" transform="matrix(-0.999, -0.035, 0.035, -0.999, 586.493, 1320.366)" fill="#fad2b0"/>
      <path id="torso" d="M507.53,192.984c.04,1.872-4.8,25.213-3.61,25.464.008,0,37.629,7.489,54.959,0l-1.846-21.465,3.206-29.845,2.822-26.276s6.338-8.528-24.151-24.1H521.877L497.7,132.352c1.621,5.377,1.9,12.359,3.521,17.738,2.994,9.912,2.385,19.815,5.469,29.7C506.687,179.791,508.025,188.039,507.53,192.984Z" transform="translate(69.608 1223.061)" fill="#fad2b0"/>
      <path id="top" d="M507.53,192.984c.04,1.872-4.8,25.213-3.61,25.464.008,0,37.629,7.489,54.959,0l-1.846-21.465,3.206-29.845,2.822-26.276s8.061-8.319-22.428-23.894c0,0-.957,11.2-9.105,10.713s-9.213-11.66-9.213-11.66l-26.142,16.562c1.621,5.377,3.431,12.129,5.048,17.508,2.994,9.912,2.385,19.815,5.469,29.7C506.687,179.791,508.025,188.039,507.53,192.984Z" transform="translate(69.608 1223.061)" fill="#a6a4ff"/>
      <path id="shoe-back" d="M558.336,378.539s1.778,6.923,3.965,8.8,10.526,4.64,10.526,4.64l5.9,2.488s1.929.479-6.885,2.9-26.683-2.9-26.683-2.9l2.06-15.929Z" transform="translate(72.751 1247.061)" fill="#5f0412"/>
      <path id="shoe-front" d="M511.241,397.58c-1.556-2.424-4.816-15.635-4.816-15.635l-7.2-.218-4.507,14.546s-.723,2.434.746,3.346c0,0,8.982,3.117,16.652-.149A5.267,5.267,0,0,0,511.241,397.58Z" transform="translate(60.751 1244.061)" fill="#5f0412"/>
      <g id="bitcoin" transform="translate(-120 -114)">
        <circle id="Ellipse_27" data-name="Ellipse 27" cx="35" cy="35" r="35" transform="translate(697 1471)" fill="#ffc92f"/>
        <circle id="Ellipse_28" data-name="Ellipse 28" cx="27.5" cy="27.5" r="27.5" transform="translate(705 1479)" fill="#ffeebe"/>
        <g id="Mask_Group_92" data-name="Mask Group 92" transform="translate(236.195 989.5)" clip-path="url(#clip-path-2)">
          <g id="Layer_2" data-name="Layer 2" transform="translate(476 499.189)">
            <g id="Layer_1" data-name="Layer 1">
              <path id="Path_61876" data-name="Path 61876" d="M35.046,4.587,30.133,7.129,6.407,19.4a14.685,14.685,0,0,1-.121-1.874A14.4,14.4,0,0,1,13.274,5.162a13.946,13.946,0,0,1,14.038-.148l2.812-1.455.42-.217A17.043,17.043,0,0,0,12.56,1.912,17.566,17.566,0,0,0,3.139,17.533q0,.67.05,1.334a3.2,3.2,0,0,1-1.706,3.082L0,22.717V26.3l4.366-2.26h0l1.414-.733,1.393-.721h0L32.185,9.643,35,8.19l5.809-3.007V1.6Z" transform="translate(0 0.002)" fill="#ffc92f"/>
              <path id="Path_61877" data-name="Path 61877" d="M40.805,8.462,8.594,25.118,5.783,26.575,0,29.568v3.578l5.744-2.972,4.913-2.542,23.75-12.29a14.854,14.854,0,0,1,.121,1.887,14.4,14.4,0,0,1-6.994,12.379,13.946,13.946,0,0,1-14.053.132l-.173.093L10.26,31.41A17.043,17.043,0,0,0,28.24,32.844a17.566,17.566,0,0,0,9.426-15.616c0-.451-.017-.9-.05-1.347a3.2,3.2,0,0,1,1.7-3.082l1.485-.768Z" transform="translate(0 0.307)" fill="#ffc92f"/>
            </g>
          </g>
        </g>
      </g>
      <g id="arm-front" transform="translate(422 16)">
        <path id="Path_986-2" data-name="Path 986" d="M497.117,192.793l4.812-18.758,5.209-27.395c-.327-11.716-7.89-14.179-7.89-14.179-10.782-1.033-12.529,7.978-12.529,7.978l-5.2,48.534s-3.965,16.679,2.163,16.832C483.678,205.8,496.317,198.312,497.117,192.793Z" transform="translate(-348.249 1206.061)" fill="#a6a4ff"/>
        <path id="Path_987-2" data-name="Path 987" d="M17.435,4.262s-4.058,38.462-4.81,46.084L2.284,53.673S-2.021,13.566,1.19,2.1C1.19,2.1,11.952-3.844,17.435,4.262Z" transform="translate(131.668 1415.996) rotate(-88)" fill="#a6a4ff"/>
        <path id="Path_4009" data-name="Path 4009" d="M46.492,182.935l-1.5,9.666s2.135,15.742,3.8,15.347.667-6.6,1.737-11.188S52.3,192.3,52.3,192.3s.966,4.733,1.7,4.314,2-8.7,2-8.7L54.5,182.751Z" transform="translate(16.765 1500.222) rotate(-103)" fill="#f2cdb4"/>
      </g>
    </g>
    <g id="kim4" transform="translate(830.942 319.953)">
      <path id="hairback" d="M1.658,94.1C.185,70.762,9.581,55.452,4.161,41.33s-5.93-25.61.765-34S27.311-3.316,38.663,6.254s8.7,31.216,27.368,47.393,26.445,44.158,9.235,57.987-80.2,33.17-65.8,20.6S3.131,117.431,1.658,94.1Z" transform="matrix(0.966, 0.259, -0.259, 0.966, 89.077, 3.133)" fill="#5b2039"/>
      <path id="torso-2" data-name="torso" d="M119.346,143.673a77.145,77.145,0,0,0,7.435,3.04c3.092,1.084,7.115,1.9,9.959,4.376,4.817,4.192-3.877,19.938-5.955,32.325s-2.356,17.22-2.356,17.22l7.021,23.5a235.053,235.053,0,0,1-29.477,1.589c-13.336-.379-21.567-3.889-21.567-3.889l9.392-21.2s-.886-13.655-2.376-20.445-11.846-23.472-6.118-29.1c2.641-2.594,7.166-3.125,11.372-4.376a66.663,66.663,0,0,0,8.061-3.04Z" transform="translate(-6.385 -84.203)" fill="#eeb07b"/>
      <g id="neck-2" data-name="neck" transform="translate(98.101 38.797)">
        <rect id="Rectangle_2" data-name="Rectangle 2" width="15" height="24" transform="translate(0)" fill="#eeb07b"/>
        <path id="Intersection_2" data-name="Intersection 2" d="M11.821.037C8.848.357,5.25,2.627,2.786,5.2A20.482,20.482,0,0,0,0,8.813v6.17H15V1.4A2.6,2.6,0,0,0,12.468,0,6.043,6.043,0,0,0,11.821.037Z" transform="translate(15 19.983) rotate(180)" fill="#af5323" opacity="0.2"/>
      </g>
      <g id="face-2" data-name="face" transform="translate(118.118 59.841) rotate(-173)">
        <path id="Path_4-2" data-name="Path 4" d="M1.174,18.61c-3.632,11.25,2,20.467,5.56,22.436s11.449,5.136,17.634,1.57,10.762-7.828,9.365-18.425S24.926-.312,18.864.005,4.805,7.36,1.174,18.61Z" transform="matrix(0.999, 0.035, -0.035, 0.999, 2.568, 0)" fill="#eeb07b"/>
        <path id="face-shadow-2" data-name="face-shadow" d="M0,0C5.585,1.606,11.825,14.636,12.785,24.583c1.026,10.64-3.7,14.739-10,18.086A11.657,11.657,0,0,1,0,43.715Z" transform="translate(22.65 0.77)" fill="#c37146" opacity="0.3"/>
        <path id="Path_6-2" data-name="Path 6" d="M1.57,9.95,4.23,1.136,0,0Z" transform="matrix(0.999, 0.035, -0.035, 0.999, 21.198, 13.593)" fill="#eeb07b"/>
        <path id="Path_7-2" data-name="Path 7" d="M8.837,0,8.514.372C8.291.642,6.361,2.48,4.686,2.48A26.251,26.251,0,0,1,0,1.872" transform="matrix(0.996, 0.087, -0.087, 0.996, 8.899, 21.305)" fill="none" stroke="#360e0e" stroke-width="0.8"/>
        <path id="Path_8-2" data-name="Path 8" d="M0,0S1.5,2.191,3.273,2.191a19.14,19.14,0,0,0,4.417-.82" transform="matrix(0.995, -0.105, 0.105, 0.995, 24.761, 21.598)" fill="none" stroke="#360e0e" stroke-width="0.8"/>
        <path id="Path_9-2" data-name="Path 9" d="M1.154,2.9c.637,0,1.731-.606,1.731-1.435A1.33,1.33,0,0,0,1.658,0,1.621,1.621,0,0,0,0,1.4,1.361,1.361,0,0,0,1.154,2.9Z" transform="matrix(0.914, 0.407, -0.407, 0.914, 13.728, 20.756)" fill="#360e0e"/>
        <path id="Path_1638" data-name="Path 1638" d="M1.158,2.9c.639,0,1.737-.606,1.737-1.435A1.332,1.332,0,0,0,1.664,0,1.624,1.624,0,0,0,0,1.4,1.363,1.363,0,0,0,1.158,2.9Z" transform="translate(27.536 20.417) rotate(13)" fill="#360e0e"/>
        <path id="Path_11" data-name="Path 11" d="M11.4,1.746,11.465,0A15.42,15.42,0,0,1,5.871,2.02,15.256,15.256,0,0,1,0,1.057,7.764,7.764,0,0,0,4.754,3.051,21.2,21.2,0,0,0,11.4,1.746Z" transform="matrix(0.999, -0.035, 0.035, 0.999, 7.26, 25.617)" fill="#5b2039"/>
        <path id="Path_4019" data-name="Path 4019" d="M9.09,1.017,9.062,2.6A18.9,18.9,0,0,0,3.656,1.173,5.33,5.33,0,0,0,0,2.439,5.664,5.664,0,0,1,3.675.046,13.019,13.019,0,0,1,9.09,1.017Z" transform="matrix(-1, 0.017, -0.017, -1, 34.165, 27.572)" fill="#5b2039"/>
        <path id="Path_13-2" data-name="Path 13" d="M6.919,3.953c-.171-.011-.708-.021-1.192,0-.808.015-.719-.056-2.151,0S0,4.177,0,4.177,2.744.351,5.727.021s4.391,3.432,4.391,3.432A11.369,11.369,0,0,1,6.919,3.953Z" transform="matrix(1, 0.017, -0.017, 1, 16.229, 6.988)" fill="#be4851"/>
        <path id="Path_1592" data-name="Path 1592" d="M0,.822A5.446,5.446,0,0,1,2.442.009c.907.107,2.039,1.652,1.512,4.28S.335,10.52.335,10.52Z" transform="matrix(-0.985, -0.174, 0.174, -0.985, 4.027, 24.917)" fill="#eeb07b"/>
      </g>
      <path id="pelvis" d="M131.348,214.082s-13.745,2.756-25.314,2.241-18.958-3.953-18.958-3.953L79.8,228.19s10.542,23.235,24.948,24.79,32.7-18.1,32.7-18.1Z" transform="translate(-5.157 -84.203)" fill="#3654a2"/>
      <path id="top-2" data-name="top" d="M119.472,143.673a76.762,76.762,0,0,0,7.435,3.067c3.092,1.094,7.115,1.919,9.959,4.416,4.817,4.229-3.877,20.119-5.955,32.617s-2.356,17.376-2.356,17.376l8.311,23.123s-15.749,5.662-29.086,5.28S84.6,220.029,84.6,220.029l9.324-18.881s-.886-13.778-2.376-20.629S79.559,159.676,85.287,154c2.641-2.618,3.144-6.631,9.771-7.819a52.723,52.723,0,0,0,9.8-2.5s-.543,7.385,6.358,7.483S119.472,143.673,119.472,143.673Z" transform="translate(-6.511 -84.203)" fill="#3d21e3"/>
      <g id="hair-front-2" data-name="hair-front" transform="translate(119.781 42.587) rotate(-173)">
        <path id="Path_1591" data-name="Path 1591" d="M17.639,6.183S13.463,8.5,14.695,20.872s.716,14.317.716,14.317A19.005,19.005,0,0,1,4.079,26.354C-.251,19-1.345,14.465,1.822,8S11.307-.7,15.068.187C15.791.357,17.639,6.183,17.639,6.183Z" transform="translate(20.334 37.355) rotate(-135)" fill="#5b2039"/>
        <path id="Path_4021" data-name="Path 4021" d="M12.513,19.429s-6.291-5.52-8.048-10.3A13.841,13.841,0,0,1,4.465,0S1.184,3.822.718,6.361s-1.944,5.4,1.486,11.968S10.2,25.57,10.2,25.57Z" transform="translate(0 1.669)" fill="#5b2039"/>
      </g>
      <g id="arm2" transform="matrix(-0.999, 0.035, -0.035, -0.999, 92.319, 90.594)">
        <path id="Path_134" data-name="Path 134" d="M28.2,7.537,19.764,2.1S13.734-1.652,9.805.873-1.434-.636.247,2.1C1.074,3.456,8.594,6.569,10.6,7c1.846.4-1.715,2.184.1,2.852a112.95,112.95,0,0,0,16.769,3.53Z" transform="translate(80.817 79.547) rotate(-139)" fill="#eeb07b"/>
        <path id="Path_1641" data-name="Path 1641" d="M0,7.06,10.083,43.4a10.314,10.314,0,0,1,8.562.914c10.6-2.523,11.844-5.427,11.844-5.427L8.6,0Z" transform="translate(53.79 24.782) rotate(124)" fill="#3d21e3" opacity="0.998"/>
        <path id="Path_1642" data-name="Path 1642" d="M.158,26.083C-.959,19.532,3.722,13.1,17.637,6.877S31.78,0,31.78,0l5.485,4.979s-10.21,9.7-18.713,16.162S1.276,32.634.158,26.083Z" transform="matrix(0.035, 0.999, -0.999, 0.035, 68.535, 19.035)" fill="#3d21e3"/>
      </g>
      <path id="shoe2" d="M15.215,27.3l-11,1L1.333,13.264S-2.356.089,2.54,0C4.9-.045,14.141,5.624,15.605,11.774S15.215,27.3,15.215,27.3Z" transform="translate(125.24 184.189) rotate(121)" fill="#03055a"/>
      <g id="arm2-2" data-name="arm2" transform="matrix(1, -0.017, 0.017, 1, 102.439, 63.616)">
        <path id="Path_1641-2" data-name="Path 1641" d="M0,53.129,10.339,15.1S15.972,4.331,20.408,1.736C26.055-1.568,32.627-.313,31.9,6.86,30.661,19.122,15.789,47.239,7.814,58.806S0,53.129,0,53.129Z" transform="matrix(0.799, -0.602, 0.602, 0.799, 0, 19.232)" fill="#3d21e3" opacity="0.998"/>
        <path id="Path_1642-2" data-name="Path 1642" d="M.158,3.066C-.959,9.617,3.722,16.051,17.637,22.273S31.78,29.15,31.78,29.15l5.485-4.979s-10.21-9.7-18.713-16.162S1.276-3.485.158,3.066Z" transform="translate(36.445 53.194) rotate(34)" fill="#3d21e3"/>
        <path id="Path_1643" data-name="Path 1643" d="M0,6.664l10.509,7.173s-.137-4.927,1.014-5.579C12.068,7.95,26.3,5.3,25.166,0a60.272,60.272,0,0,1-9.958,1.291A103.951,103.951,0,0,1,3.086.829Z" transform="translate(51.358 89.737) rotate(41)" fill="#eeb07b"/>
      </g>
      <g id="leg2" transform="translate(25.061 127.83)">
        <path id="Path_4043" data-name="Path 4043" d="M948.246,100.569c19.517,9.474,9.779,33.086-8.124,29.88s-59.826-31.4-57.795-38.865S928.728,91.1,948.246,100.569Z" transform="translate(-875.206 -83.033)" fill="#7d7aeb"/>
        <path id="Path_4044" data-name="Path 4044" d="M8.9,1.442S2.779,25.089.613,42.887s2.1,28.483,2.1,28.483,4.055,8.6,7.855,8.652,7.348-8.431,7.348-8.431a118,118,0,0,0,4.688-32.4C22.6,21.4,19.161,0,19.161,0Z" transform="translate(80.603 40.011) rotate(120)" fill="#7d7aeb"/>
      </g>
      <g id="leg1" transform="translate(52.277 134.19)">
        <path id="Path_4045" data-name="Path 4045" d="M899.657,96.771s14.118,23.811,0,33.286-44.017-4.026-44.017-4.026L869.2,100.894Z" transform="translate(-822.754 -89.393)" fill="#a6a4ff"/>
        <path id="Path_4046" data-name="Path 4046" d="M0,40.351S66.747-14.818,79.191,3.861C86.231,20.09,61.556,30.823,48.927,36.93S2.908,51.488,2.908,51.488Z" transform="matrix(0.998, 0.07, -0.07, 0.998, 3.592, 0)" fill="#a6a4ff"/>
      </g>
      <path id="shoe1" d="M170.111,648.645h-10.75s-21.7-.607-20.353,4.749,12.6,7.787,12.6,7.787l20.206-1.116Z" transform="translate(-116.063 -474.203)" fill="#03055a"/>
      <g id="laptop" transform="translate(31.404 90.708)">
        <g id="Group_4" data-name="Group 4" transform="translate(0 0)">
          <path id="Rectangle_12" data-name="Rectangle 12" d="M3,0H44a3,3,0,0,1,3,3V3a3,3,0,0,1-3,3H0A0,0,0,0,1,0,6V3A3,3,0,0,1,3,0Z" transform="translate(67.778 57.685) rotate(-166)" fill="#b5b1c3"/>
          <path id="Path_49" data-name="Path 49" d="M1062.195,773.7l-1.665-39.872a5.38,5.38,0,0,0-1.72-3.125,6.461,6.461,0,0,0-3.727-.684h-30.211a2.311,2.311,0,0,0-1.912,1.587,13.988,13.988,0,0,0-.326,4.462l2.238,36.143s-.32,2.594,4.03,2.907l32.208,5.169C1062.489,780.45,1062.195,773.7,1062.195,773.7Z" transform="translate(-1022.586 -729.988)" fill="#d6d5e6"/>
        </g>
        <path id="Path_4001" data-name="Path 4001" d="M3.651,0C5.667,0,7.3,2.686,7.3,6s-1.635,6-3.651,6S0,9.312,0,6,1.635,0,3.651,0Z" transform="matrix(0.996, -0.087, 0.087, 0.996, 9.754, 18.497)" fill="#fff"/>
      </g>
    </g>
  </g>
</svg>
