<svg xmlns="http://www.w3.org/2000/svg" viewBox="0 0 13.314 12.242">
  <defs>
    <style>
      .cls-1 {
        fill: #8cb8a4;
      }
    </style>
  </defs>
  <g id="Group_92" data-name="Group 92" transform="translate(0.008 -0.01)">
    <path id="Path_366" data-name="Path 366" class="cls-1" d="M10.216,2.007H4.531L5.005.836a.611.611,0,0,0-.177-.7A.613.613,0,0,0,4.1.119L.258,2.79a.585.585,0,0,0-.265.519.616.616,0,0,0,.287.5L4.31,6.246a.6.6,0,0,0,.718-.066.624.624,0,0,0,.144-.718l-.53-1.115h5.575a.759.759,0,0,1,.751.751V9.171a.742.742,0,0,1-.751.74H4.045a.989.989,0,0,0-.994.994v.353a.989.989,0,0,0,.994.994h6.171A3.093,3.093,0,0,0,13.307,9.16V5.109A3.1,3.1,0,0,0,10.216,2.007Z" transform="translate(0)"/>
  </g>
</svg>
