<?xml version="1.0" encoding="UTF-8"?>
<svg width="300px" height="300px" viewBox="0 0 300 300" version="1.1" xmlns="http://www.w3.org/2000/svg" xmlns:xlink="http://www.w3.org/1999/xlink" style="background: #3C8DBC;">
    <!-- Generator: Sketch 46.1 (44463) - http://www.bohemiancoding.com/sketch -->
    <title>Profile</title>
    <desc>Created with Sketch.</desc>
    <defs>
        <polygon id="path-1" points="0.409090909 300 300 300 300 0 0.409090909 0"></polygon>
    </defs>
    <g id="Page-1" stroke="none" stroke-width="1" fill="none" fill-rule="evenodd">
        <g id="Profile">
            <g id="user">
                <mask id="mask-2" fill="white">
                    <use xlink:href="#path-1"></use>
                </mask>
                <g id="Clip-2"></g>
                <path d="M300,150 C300,67.3022727 232.697727,0 150,0 C67.3022727,0 0,67.3022727 0,150 C0,193.677273 18.7772727,233.072727 48.6886364,260.502273 L48.5522727,260.638636 L53.4,264.736364 C53.7204545,265.002273 54.0681818,265.213636 54.3886364,265.486364 C56.9659091,267.613636 59.6590909,269.638636 62.3727273,271.609091 C63.2522727,272.25 64.1318182,272.884091 65.0386364,273.525 C67.9704545,275.522727 70.95,277.438636 74.0113636,279.225 C74.6795455,279.627273 75.3477273,279.995455 76.0090909,280.397727 C79.3431818,282.286364 82.7795455,284.1 86.2636364,285.722727 C86.5295455,285.859091 86.775,285.961364 87.0409091,286.097727 C98.4409091,291.368182 110.611364,295.261364 123.313636,297.579545 C123.661364,297.627273 123.981818,297.681818 124.322727,297.736364 C128.263636,298.431818 132.259091,298.963636 136.309091,299.331818 C136.786364,299.386364 137.297727,299.413636 137.775,299.468182 C141.797727,299.788636 145.875,300 150,300 C154.077273,300 158.120455,299.788636 162.115909,299.468182 C162.627273,299.413636 163.131818,299.386364 163.636364,299.359091 C167.659091,298.990909 171.6,298.452273 175.513636,297.790909 C175.861364,297.736364 176.209091,297.654545 176.556818,297.6 C189.068182,295.363636 201.054545,291.559091 212.297727,286.390909 C212.720455,286.206818 213.15,286.015909 213.545455,285.831818 C216.927273,284.236364 220.206818,282.531818 223.431818,280.718182 C224.229545,280.261364 225.027273,279.811364 225.825,279.334091 C228.756818,277.602273 231.661364,275.815909 234.456818,273.872727 C235.465909,273.204545 236.454545,272.461364 237.436364,271.738636 C239.836364,270.034091 242.202273,268.254545 244.465909,266.386364 C244.977273,265.990909 245.536364,265.615909 246.040909,265.213636 L251.018182,261.034091 L250.861364,260.904545 C281.038636,233.468182 300,193.915909 300,150 Z M10.9227273,150 C10.9227273,73.2954545 73.2954545,10.9227273 150,10.9227273 C226.704545,10.9227273 289.077273,73.2954545 289.077273,150 C289.077273,191.331818 270.940909,228.490909 242.229545,253.977273 C240.634091,252.886364 239.038636,251.870455 237.354545,251.045455 L191.175,227.959091 C187.05,225.879545 184.465909,221.727273 184.465909,217.090909 L184.465909,200.952273 C185.529545,199.643182 186.675,198.15 187.820455,196.5 C193.813636,188.059091 198.606818,178.656818 202.097727,168.565909 C209.018182,165.286364 213.470455,158.386364 213.470455,150.613636 L213.470455,131.277273 C213.470455,126.559091 211.738636,121.984091 208.65,118.356818 L208.65,92.8977273 C208.915909,90.075 209.925,74.0931818 198.368182,60.9136364 C188.325,49.4590909 172.05,43.6227273 150,43.6227273 C127.95,43.6227273 111.675,49.4590909 101.631818,60.9136364 C90.075,74.0931818 91.0840909,90.075 91.35,92.8977273 L91.35,118.356818 C88.2613636,121.956818 86.5295455,126.559091 86.5295455,131.277273 L86.5295455,150.613636 C86.5295455,156.634091 89.2227273,162.225 93.8318182,166.009091 C98.25,183.320455 107.331818,196.425 110.713636,200.843182 L110.713636,216.634091 C110.713636,221.086364 108.265909,225.184091 104.379545,227.318182 L61.2272727,250.834091 C59.8704545,251.577273 58.4863636,252.456818 57.1295455,253.445455 C28.7931818,227.959091 10.9227273,191.045455 10.9227273,150 Z M231.606818,262.527273 C229.690909,263.911364 227.740909,265.268182 225.770455,266.55 C224.863636,267.136364 223.963636,267.722727 223.056818,268.309091 C220.472727,269.904545 217.861364,271.397727 215.175,272.836364 C214.588636,273.129545 214.002273,273.422727 213.415909,273.736364 C207.259091,276.879545 200.897727,279.6 194.372727,281.781818 C194.161364,281.863636 193.915909,281.945455 193.677273,282.020455 C190.268182,283.165909 186.804545,284.154545 183.293182,285.034091 L183.265909,285.034091 C179.720455,285.913636 176.154545,286.629545 172.561364,287.243182 C172.452273,287.243182 172.343182,287.270455 172.268182,287.297727 C168.886364,287.829545 165.45,288.225 162.040909,288.545455 C161.427273,288.6 160.813636,288.627273 160.2,288.681818 C156.818182,288.920455 153.409091,289.077273 150,289.077273 C146.536364,289.077273 143.1,288.920455 139.663636,288.654545 C139.077273,288.627273 138.470455,288.572727 137.884091,288.518182 C134.420455,288.225 130.984091,287.802273 127.575,287.270455 L127.125,287.188636 C119.904545,285.961364 112.820455,284.209091 105.893182,281.890909 C105.681818,281.809091 105.470455,281.727273 105.259091,281.652273 C101.822727,280.506818 98.4409091,279.197727 95.1068182,277.759091 C95.0795455,277.759091 95.0522727,277.759091 95.0318182,277.731818 C91.8886364,276.375 88.7931818,274.881818 85.7318182,273.286364 C85.3363636,273.075 84.9340909,272.884091 84.5318182,272.672727 C81.7363636,271.179545 79.0227273,269.584091 76.3295455,267.906818 C75.5318182,267.402273 74.7340909,266.897727 73.9636364,266.359091 C71.4818182,264.763636 69.0340909,263.059091 66.6613636,261.272727 C66.4227273,261.088636 66.1840909,260.904545 65.9454545,260.713636 L66.45,260.420455 L109.595455,236.904545 C117,232.854545 121.609091,225.081818 121.609091,216.634091 L121.609091,196.984091 L120.354545,195.463636 C120.225,195.327273 108.45,181.002273 103.977273,161.556818 L103.5,159.402273 L101.631818,158.202273 C99,156.497727 97.425,153.675 97.425,150.613636 L97.425,131.277273 C97.425,128.747727 98.5159091,126.375 100.459091,124.588636 L102.272727,122.965909 L102.272727,92.6045455 L102.218182,91.8886364 C102.218182,91.7522727 100.595455,78.6204545 109.834091,68.1 C117.722727,59.1 131.25,54.5454545 150,54.5454545 C168.695455,54.5454545 182.175,59.0727273 190.056818,67.9977273 C199.295455,78.4090909 197.781818,91.7795455 197.781818,91.8886364 L197.727273,122.993182 L199.540909,124.615909 C201.484091,126.375 202.575,128.747727 202.575,131.277273 L202.575,150.613636 C202.575,154.5 199.909091,158.045455 196.131818,159.218182 L193.411364,160.043182 L192.531818,162.756818 C189.313636,172.745455 184.731818,181.984091 178.922727,190.193182 C177.484091,192.211364 176.1,193.997727 174.9,195.381818 L173.570455,196.902273 L173.570455,217.090909 C173.570455,225.879545 178.445455,233.788636 186.3,237.729545 L232.486364,260.822727 C232.779545,260.952273 233.072727,261.115909 233.365909,261.272727 C232.779545,261.702273 232.193182,262.097727 231.606818,262.527273 Z" id="Fill-1" fill="#FFFFFF" mask="url(#mask-2)"></path>
            </g>
        </g>
    </g>
</svg>